<?xml version="1.0" encoding="utf-8"?>
<!-- Generator: Adobe Illustrator 20.1.0, SVG Export Plug-In . SVG Version: 6.00 Build 0)  -->
<svg version="1.1" id="Calque_1" xmlns="http://www.w3.org/2000/svg" xmlns:xlink="http://www.w3.org/1999/xlink" x="0px" y="0px"
	 viewBox="0 0 432 432" style="enable-background:new 0 0 432 432;" xml:space="preserve">
<style type="text/css">
	.st0{fill:#CC7B26;}
	.st1{fill:#C9973C;}
	.st2{fill-rule:evenodd;clip-rule:evenodd;fill:#C9973C;}
</style>
<g>
	<g>
		<path d="M121.5,72.5l-0.6-0.9c-5.4-7-12.5-7-18.4-6.8c-1.7,0-3.3,0.5-4.9,1.4c-0.2,0.1-0.5,0.2-0.7,0.4c-0.5,0.4-0.6,0.6-0.5,0.8
			c0.2,0.1,0.4,0.4,0.6,0.4c0.8,0.1,1.7,0.2,2.5,0.1c0.3,0,0.6,0,0.9,0.4c0,0.2,0.1,0.6,0.1,0.9c-0.1,1.2-0.1,2.3-0.1,3.6
			c0.1,2.7-0.6,16.7-0.6,19.1c0,0.1,0,0.3,0.1,0.5c0,2.6,0.1,11.6,0.1,11.9c0,0.6-0.1,1.4,0,1.9c-0.8,0.6-1.7-0.1-2.5,0.2
			c0,0.2,0.1,0.5,0.1,0.6c0.4,0.4,0.9,0.6,1.2,0.9c0.6,0.3,1.3,0.8,2.1,0.9c1.9,0.3,4,0.2,5.8-0.7l3.1-1.3c0.5-0.2,1-0.4,1.4-0.7
			c1.1-0.6,5.3-3.8,6-4.7c1.1-1.4,2.1-2.6,3-3.9c0.5-0.9,0.9-1.8,1.4-2.6c0.6-1.4,1.1-2.6,1.3-4.1c0.3-1.3,0.5-2.7,0.6-4
			c0.2-1.1,0.4-2.1,0.4-3.3c-0.1-2.3-0.1-4.6-0.6-6.8C122.8,75.2,122.3,73.7,121.5,72.5z M110.1,102.1c-1.4,0.9-2.7,1.8-4.1,2.3
			c-0.4,0.1-0.7,0.1-1.2,0.4c-0.2-1.4-0.3-2.5-0.3-3.6c0-0.4,0.1-0.9,0-1.3c0-1.9-0.1-3.8-0.1-5.8c0-3.8-0.1-7.5,0.1-11.2
			c0.2-2.1,0.1-4.2,0.2-6.3c0.1-2.6,0.2-5.3,0.3-7.9c0-0.2,0.1-0.5,0.1-0.8c0.1-0.2,0.3-0.4,0.4-0.4c0.4,0,0.8-0.1,1.1-0.1
			c1.9,0.2,3.8,0.6,5.6,1.4c0.5,0.3,0.9,0.7,1.4,1c4.3,2.5,4.6,8.6,4.6,11.7C118.3,85.9,116.4,98.7,110.1,102.1z"/>
		<path d="M152.4,76.7c-0.3-1.4-0.8-2.8-1.4-4.1c-0.9-1.9-2-3.4-3.2-4.8c-3.7-4.3-10.5-2.1-13.3,1.4c-0.8,1-1.4,2.1-2,3.1
			c-1.1,1.6-2,3.3-2.6,5.4c-0.4,1.1-0.7,2.3-1,3.3l-0.2,1.2c-0.6,3.8-0.9,7.7-0.6,11.5c0.1,2,0.6,4,1.4,5.8c0.5,0.9,0.9,1.6,1.3,2.3
			c1.5,2.3,3,4.3,5.1,5.9c1.1,0.8,2.2,1.4,3.3,1.9c0.3,0.1,0.7,0.1,1,0.1c0.8-0.1,1.5-0.2,2.1-0.6c3.5-1.9,6.1-6.1,6.3-6.8
			c1.5-4.8,1.8-5.6,2.1-6.6c0.4-2.2,0.7-4.6,1.1-6.7c0.4-2.7,0.4-5.5,0.5-8c0.1-1,0-2,0-3.1C152.5,77.7,152.5,77.1,152.4,76.7z
			 M147.9,83.8v0.9c0,2.5-0.1,5.1-0.6,7.5c-0.2,1.2-0.6,2.3-0.8,3.4c-0.4,1.6-0.9,3.3-1.4,5c-0.4,1.1-0.9,2.2-1.4,3.3
			c-0.4,0.9-1.1,1.8-1.9,2.3c-0.7,0.6-1.6,1-2.6,1c-0.6,0-1-0.4-1.3-0.9c-0.7-1.3-1.5-2.3-1.9-3.8c-0.3-0.9-0.4-1.8-0.6-2.7
			c-0.4-1.6-0.5-3.2-0.6-4.8c-0.1-0.4-0.1-0.9,0-1.4c0.1-1.5,0.2-2.9,0.1-4.4c-0.1-0.8,0-1.6,0.1-2.3c0-0.5,0.1-1.1,0.1-1.5
			c0-2.3,0.4-4.4,0.9-6.6c0.3-1.1,0.5-2.4,0.7-3.6c0.2-1.2,0.6-2.4,0.9-3.6c0.2-0.9,0.9-1.4,1.4-2.2l0.3-0.2c3.2-3.4,6.9,0.5,8,7.3
			c0.3,1.5,0.3,3.1,0.5,4.7C148,81.9,147.9,82.8,147.9,83.8z"/>
		<path d="M184.6,66.4c-1-0.3-2.1-0.2-3.2-0.1c-0.3,0.1-0.6,0.1-0.9,0.1c-1.3,0-2.3,0.4-3.6,0.6c-0.4,0.1-0.7,0.3-1,0.6
			c-0.3,0.4-0.2,0.9,0.2,0.9c0.2,0.1,0.4,0.1,0.6,0.1c0.4,0.1,0.6,0.4,0.6,0.9c-0.1,0.1-0.1,0.1-0.1,0.3c-0.5,12.3-0.5,13.7-0.4,15
			c-0.1,0.7,0,1.4,0,1.9c0,0.6-0.1,1.2,0,1.8c0.1,2.8-0.1,5.6-0.1,8.4c0,0.2-0.1,0.4-0.1,0.9l-0.6-0.9c-0.5-1.1-1.1-2.3-1.6-3.3
			c-0.4-0.8-0.6-1.6-0.9-2.4c-0.4-0.7-0.6-1.6-1.1-2.5c-0.5-1.1-3-7-3.8-8.4c-1.4-2.2-2.5-4.6-3.4-7c-0.6-1.9-1.6-3.5-2.5-5.2
			c-1-2.1-2-0.9-3.3-1.1l-2.8,0.2c-1.1,0-1.3,0.9-1.5,1.1c-0.5,0.7-0.1,1.8,1.1,1.7c0.3,0,0.6-0.1,0.8-0.1c0.5,0.1,0.7,0.4,0.7,0.8
			c0,1.1,0.1,2.3,0.1,3.3c0,3.3-0.1,6.8-0.4,10.1c-0.2,2.5-0.5,5.1-0.2,7.5l-0.1,0.4c-0.1,2.1-0.2,4.1-0.2,6.2
			c0,1.9-0.1,3.8-0.2,5.8c0,1,0,1.8-0.1,2.6c-0.5,0.4-1.1,0.7-1.4,1c-0.4,0.4-1.6,0.6-1.7,0.9c-0.1,0.2,0,0.6,0.2,0.8
			c0.2,0.2,0.5,0.2,0.8,0.2c0.4-0.1,0.8-0.2,1.3-0.3c0.9-0.2,1.7-0.2,2.6,0c1.3,0.4,2.3-0.4,2.3-1.7c0.1-1.2,0.3-2.2,0.1-3.4v-0.6
			c0.1-1.4,0.3-2.6,0.4-3.9c0.1-2.6,0.3-5.3,0.4-8c0.1-2.7,0.2-5.3,0.2-8.1c0.1-2.3,0.2-4.6,0.4-6.8c0-0.1,0.1-0.2,0.3-0.4
			c0.4,0.6,0.8,1.2,1,2c0.9,1.7,1.6,3.5,2.5,5.2c0.6,1.1,1.1,2.3,1.6,3.4c1,2.1,2,4.2,2.8,6.4l4.1,11.1c0.6,1,1.5,2,2.2,3.1
			c0.4,0.6,0.9,0.9,1.6,0.9c0.7,0.1,1.1-0.1,1.4-0.8c0.2-0.4,0.8-6.1,0.9-8.8c0-1.4-0.4-2.8,0.8-15l0.2-4.6c0-1.2-0.1-2.4-0.1-3.6
			c-0.1-0.5,0-0.9,0-1.5c-0.4-1.9,0.2-3.9-0.3-5.8c0.2-0.1,0.4-0.1,1.5-0.1c0.9-0.1,1.6-0.4,2.1-0.8c0.3-0.1,0.5-0.5,0.4-0.9
			C185,66.7,184.8,66.5,184.6,66.4z"/>
		<path d="M191.2,65.9c-0.7,0-1.6,1.1-1.9,2l-0.1,0.4c0.3,1,0.9,2.5,1.3,2.7c0,0.5-0.2,1-0.1,1.4c0,0.4,0.1,0.8,0.4,0.7
			c0.1,0.1,0.3,0.2,0.5-0.1c0.5-0.4,0.9-1.2,1.4-2c0.9-1.5,0.6-3.7-0.6-4.8C191.9,65.8,191.5,65.7,191.2,65.9z"/>
		<path d="M217.5,66.5l-0.6-0.2c-0.4-0.1-0.9-0.2-1.3-0.2c-0.4,0-0.8-0.1-1.2-0.1c-1.9,0.1-3.7,0.2-5.6,0.4c-0.1,0-0.4,0.1-0.4,0.1
			c-1.1,0.1-2.3,0.1-3.4,0.3c-0.6,0.1-1.3,0.1-1.9,0.4c-1.5,0.3-2.9,0.5-4.2,0.7c-0.6,0.1-1.2,0.2-1.8,0.4c-0.4,0.1-0.6,0.6-0.8,1
			c0.1,0.8,0,1.7,0.1,2.5c0,0.3,0.3,0.4,0.5,0.5c0.6,0.1,1.1-0.1,1.1-0.7c0.1-0.6,0.1-1.2,0.4-1.7c0.8-0.4,1.7-0.4,2.6-0.4
			c0.7,0,1.6-0.1,2.4,0.1c0.1,0.2,0.1,0.5,0.1,0.8c-0.1,1.4-0.3,3-0.2,4.3c0,1.5-0.3,2.9,0,4.3c0,0.1,0,0.4-0.1,0.6
			c0,0.8-0.1,1.6-0.1,2.5v1.4c-0.1,1.5-0.1,3.1-0.2,4.7c-0.1,1.4-0.4,2.6-0.4,4c-0.1,1.1-0.2,2.3-0.1,3.3c0,1.3,0.1,2.6,0.1,3.8
			c0.1,0.9,0.1,1.6,0.1,2.5c-0.1,1-0.1,2.1,0,3.1c0.2,0.5,0.1,1,0.1,1.5c0,0.4-0.3,0.6-0.6,0.6c-0.3,0-0.6,0.2-0.8,0.3
			c-0.2,0.1-0.6,0.1-0.9,0.1c-0.4,0.1-0.6,0.5-0.4,0.9c0.4,0.5,0.9,0.8,1.4,0.9c1,0.1,1.9,0.3,2.8,0.2c0.9,0,1.9-0.1,2.8,0.1
			c0.9,0.1,1.6-0.1,2.1-0.8c0.2-0.2,0.3-0.4,0.3-0.6c-0.1-0.3-0.4-0.4-0.6-0.5c-0.4,0-0.7,0.1-1.1,0.1c-0.4,0-0.6-0.2-0.6-0.5
			c0.2-1.4,0.4-2.8,0.1-4.2c0-0.1,0.1-0.3,0.1-0.5c0.1-0.8,0.1-1.6,0.1-2.3c0.1-0.8-0.1-1.5,0.1-2.1c0.1-1.4,0.1-2.7,0.4-4.1
			l0.3-3.9l0.2-3.6c0.1-0.2,0.1-0.5,0.1-0.8c0-0.6,0-1.3,0.1-1.9c0.1-1.4,0.2-2.8,0.4-4.2c0.2-2.5,0.4-5,0.3-7.5
			c-0.1-0.9-0.1-1.9-0.5-2.7v-0.4c0.1-0.1,0.2-0.2,0.3-0.2c1.6-0.2,3.3-0.4,5-0.4c0.3-0.1,0.5,0,0.7,0c0.4,1.3,0.5,1.4,1.6,2.1
			c0.1,0.1,0.1,0.2,0.2,0.2c0.4,0.3,0.9,0.3,1.1-0.1c0.2-0.4,0.4-0.7,0.5-1c0-0.6,0.1-1.3,0.2-2C218.4,67,218.1,66.5,217.5,66.5z"/>
		<path d="M269.3,67.3c0.7-0.5,1.1-1.4-0.4-1.9c-0.8-0.2-1.5-0.2-2.1-0.3c-1.4-0.1-5.2,0-4.1,1.2c0.3,0.4,0.7,0.6,0.9,0.7
			c0.3,0.1,0.6,0.4,0.9,0.4c-0.4,1-0.6,2.1-0.9,3c-0.1,0.6-0.4,1.1-0.5,1.9c-0.4,2.8-1.1,5.3-1.7,7.8c-0.5,2.3-1,4.3-1.6,6.3
			c-0.6,2.3-1.1,4.6-1.6,6.8c-0.2,0.7-0.3,1.4-0.7,2.1c-0.4-0.6-0.4-1.1-0.4-1.7l-3-15.1l-0.3-1.5c-0.9-2.4-1.7-1.9-4.1-1.9
			c-0.8,0-0.9,2.1-1.1,3.1c-0.1,0.4-0.4,1.1-0.6,1.4l-2.6,9.3c-0.9,2.4-1.9,4.8-2.7,7.3c-0.1,0.2-0.2,0.4-0.4,0.7
			c-0.2-0.8-0.4-1.5-0.4-2.1c0-2.3-0.3-4.4-0.4-6.8c-0.2-1.8-0.3-3.5-0.4-5.4c-0.2-2.2-0.4-4.6-0.6-6.8c-0.1-1.2-0.3-2.5-0.6-3.7
			c-0.1-1.4-0.3-2.7-0.5-4.3c0.1-0.1,0.4-0.6,0.4-0.9c0.3-0.4,0.1-1-0.4-1c-0.4-0.1-0.7-0.1-1-0.3l-4.6-0.2l-0.9-0.2
			c-0.4,0-0.6,0.1-0.8,0.6c-0.1,0.4,0.1,0.8,0.4,1c0.3,0.3,0.6,0.3,1.1,0.5c0.7,0.2,0.9,0.4,0.9,1c0,1.7,0.9,10.5,1.1,13.2
			c0.2,3.7,0.4,7.6,0.6,11.3c0.1,2.1,0.4,4.1,0.7,6.1c0.3,2.4,0.8,4.9,1.4,7.4c0.2,1.9,1.3,2.6,2.6,3.1c0.3,0.2,0.6,0,0.9-0.4
			c0.1-0.3,0.2-0.5,0.3-0.8c0.3-1.5,0.9-3,1.4-4.5c0.8-1.6,1.4-3.3,1.9-5.3c0.4-1.4,0.8-2.8,1.4-4.1c0.7-1.9,1.4-3.6,1.9-5.7
			c0.1-0.8,0.4-1.7,0.6-2.4l0.6-3.7c0-0.1,0.1-0.2,0.2-0.3c0.1,0.1,0.2,0.1,0.2,0.2c1.7,6.8,2.3,10.3,2.8,12.7
			c0.6,3.2,1.3,7.2,2.3,10.3c0.4,1.5,1.4,2.6,1.8,3.1c0.4,0.6,1.1,0.2,1.3-0.5c0.3-0.8,0.4-1.4,0.6-1.9c0.8-2.3,1.5-5.3,1.8-7.8
			c0.1-0.3,0.1-0.6,0.2-0.9c0.5-1.8,0.9-3.4,1.2-5.1c0.1-1.1,0.4-2.3,0.8-3.2c0.4-1.4,0.9-3,1.2-4.4c0.1-0.6,0.1-1.1,0.2-1.4
			c0.3-1.6,0.6-3.1,0.9-4.4c0.4-1.6,1.4-8.4,2.2-11.1C267.5,67.8,268.6,67.7,269.3,67.3z"/>
		<path d="M291.5,105.8l-0.9,0.1c0.1-0.4,0.1-0.7,0.1-1.1l0.4-2.9c0-0.8,0.1-1.7,0.1-2.6c-0.1-1.1,0.1-2.1-0.1-3.3
			c-0.2-1.3,0.1-2.7-0.1-4c0.3-2.1,0-4.2-0.1-6.4l-0.4-8.2c0-3.3-1.1-6.4-2.6-9.3c-0.4-0.9-1-1.6-1.6-2.1c-0.6-0.9-1.6-1.2-2.7-1.1
			c-1.5,0.1-3,0.5-4.2,1.7c-1.8,1.7-3.3,3.5-4.3,5.8c-1.3,2.8-2.3,5.9-2.9,9c-0.3,1.4-0.5,3.1-0.8,4.4c-0.6,3.4-1.1,6.9-1.5,10.3
			c-0.1,1.3-0.3,2.4-0.3,3.6c0,2.1,0,3.9,0.1,5.8c-0.1,0.3-0.1,0.6-0.1,1c-0.3,0.1-0.5,0.1-0.6,0.2c-0.5,0.2-1.1,0.4-1.6,0.8
			c-0.2,0.1-0.3,0.6,0,0.8c0.1,0.2,0.4,0.4,0.6,0.5c0.9,0.4,1.7,0.4,2.6,0.5c0.6,0.1,1.4,0,2.1,0.2c0.6,0.3,2.1-0.2,2.2-1
			c0.1-0.6-0.1-0.9-0.6-1.1c-1.4-0.4-0.5-1.1-0.3-3.6c0-1,0-2,0.1-3c0.1-0.9,0.2-1.6,0.2-2.5c0.1-1.6,0.3-2.9,0.4-4.4
			c0.4-1.5,0.6-2.8,0.9-4.4c0.1-0.9,0.2-1.6,0.7-2.6c0.4-0.1,0.9-0.2,1.4-0.3c2-0.1,4.1-0.1,6-0.7h0.4c0.4-0.1,0.8,0.2,0.8,0.6
			c0.1,0.8,0.1,1.6,0.1,2.3c0,1.4,0.1,3,0.1,4.3c0.1,2,0.1,3.9,0.1,5.8c0.1,2.6-0.2,5.3,0.6,8c-0.4,0.1-0.8,0.4-1,0.6
			c-0.4,0.3-0.4,0.9,0,1c0.5,0.3,1.1,0.6,1.6,0.6l4.6-1.5c0.1,0,0.4-0.1,0.6-0.1c0.6-0.1,0.9-0.6,0.9-1.1
			C292.2,106.1,292,105.8,291.5,105.8z M284.6,83.3c-1.4,0.4-2.7,0.4-3.9,0.6c-1.3,0.2-2.6,0.4-3.8,0.7c-0.1-0.1-0.3-0.1-0.3-0.4
			c-0.1-1.7-0.1-3.5,0.4-5.2c0.2-0.9,0.4-1.8,0.5-2.7c0.2-1,0.2-2.1,0.4-2.9c0.1-1.2,0.8-2.5,1.4-3.4c0.5-0.8,1.2-1.6,1.8-2.2
			c0.4-0.4,1-0.2,1.2,0.3c0.9,2.3,1.9,4.8,1.9,7.4c0.1,2.1,0.3,4.3,0.4,6.3C284.7,82.4,284.6,82.8,284.6,83.3z"/>
		<path d="M306.8,66.8c-0.4-0.1-0.7-0.4-1.1-0.3c-1.1-0.1-2.3-0.4-3.3-0.3c-1.4,0-2.8,0.2-4.1,0.4c-0.6,0-1.1,0.3-1.6,0.8
			c-0.2,0.2-0.1,0.8,0.1,0.9c0.5,0.1,0.9,0.3,1.3,0.2h1.9v2.2c-0.1,0.7-0.2,1.4-0.2,2.3c-0.2,2.5-0.3,5.2-0.4,7.6
			c0,1-0.1,1.9-0.1,2.8c-0.1,2.3-0.1,4.6-0.1,6.8c-0.1,2.8,0.1,5.7,0.1,8.5c0,1.7-0.1,3.5,0,5.1c0,0.9-0.1,1.7-0.4,2.6
			c-0.1,0.4-0.4,0.9-0.8,0.9l-1.4,0.4c-0.1,0.1-0.1,0.4,0,0.6c0.2,0.5,0.9,0.8,1.5,0.8c0.9-0.1,2.9,0.1,3.8,0.1
			c0.6-0.1,1.3,0,1.9-0.2c0.3-0.1,0.6-0.1,0.9-0.3c0.1-0.2,0.3-0.4,0.2-0.6l-0.5-0.4c-0.4-0.1-0.9,0.1-1.4-0.1
			c0.1-0.1,0.2-0.4,0.1-0.6c0.1-0.9,0.3-1.6,0.4-2.3c0.1-0.7,0-1.5-0.1-2.2l-0.1-5.7c0.1-1.2,0.1-2.3,0.1-3.5c0.1-1.5,0-3.1,0-4.6
			c0.1-1.9,0.2-3.8,0.3-5.7c0.1-1,0.1-2.1,0.1-3.1c0-1.4,0-2.9,0.2-4.4c0.1-0.5,0.1-1,0.1-1.4c0.1-0.5,0-0.9,0.1-1.4
			c0.1-0.6,0.1-1.2,0.1-1.9c-0.1-0.4-0.1-0.9,0-1.4c-0.1-0.9,0.1-1,1.2-1.1c0.2,0,0.4,0.1,0.6,0.1c0.1,0,0.4-0.2,0.5-0.2
			c0.4-0.1,0.6-0.9,0.3-1.1C307.1,67,306.9,66.8,306.8,66.8z"/>
		<path d="M329.8,70.5c0.4,0.3,0.9,0.3,1.1-0.1c0.2-0.4,0.4-0.7,0.5-1c0-0.6,0.1-1.3,0.2-2c0-0.5-0.4-0.9-1-1l-0.6-0.2
			c-0.4-0.1-0.9-0.2-1.3-0.2c-0.4,0-0.8-0.1-1.2-0.1c-1.9,0.1-3.7,0.2-5.6,0.4c-0.1,0-0.4,0.1-0.4,0.1c-1.1,0.1-2.4,0.1-3.4,0.3
			c-0.6,0.1-1.3,0.1-1.9,0.4c-1.5,0.3-2.9,0.5-4.2,0.7c-0.6,0.1-1.2,0.2-1.8,0.4c-0.4,0.1-0.6,0.6-0.8,1c0.1,0.8,0,1.7,0.1,2.5
			c0,0.3,0.3,0.4,0.5,0.5c0.6,0.1,1.1-0.1,1.1-0.7c0.1-0.6,0.1-1.2,0.4-1.7c0.8-0.4,1.7-0.4,2.6-0.4c0.7,0,1.6-0.1,2.4,0.1
			c0.1,0.2,0.1,0.5,0.1,0.8c-0.1,1.4-0.3,3-0.2,4.3c0,1.5-0.3,2.9,0,4.3c0,0.1,0,0.4-0.1,0.6c0,0.8-0.1,1.6-0.1,2.5v1.4
			c-0.1,1.5-0.1,3.1-0.2,4.7c-0.1,1.4-0.4,2.6-0.4,4c-0.1,1.1-0.2,2.3-0.1,3.3c0,1.3,0.1,2.6,0.1,3.8c0.1,0.9,0.1,1.6,0.1,2.5
			c-0.1,1-0.1,2.1,0,3.1c0.2,0.5,0.1,1,0.1,1.5c0,0.4-0.3,0.6-0.6,0.6c-0.3,0-0.6,0.2-0.8,0.3c-0.2,0.1-0.6,0.1-0.9,0.1
			c-0.4,0.1-0.6,0.5-0.4,0.9c0.4,0.5,0.9,0.8,1.4,0.9c1,0.1,1.9,0.3,2.8,0.2c0.9,0,1.9-0.1,2.8,0.1c0.9,0.1,1.6-0.1,2.1-0.8
			c0.2-0.2,0.3-0.4,0.3-0.6c-0.1-0.3-0.4-0.4-0.6-0.5c-0.4,0-0.7,0.1-1.1,0.1c-0.4,0-0.6-0.2-0.6-0.5c0.2-1.4,0.4-2.8,0.1-4.2
			c0-0.1,0.1-0.3,0.1-0.5c0.1-0.8,0.1-1.6,0.1-2.3c0.1-0.8-0.1-1.5,0.1-2.1c0.1-1.4,0.1-2.7,0.4-4.1l0.3-3.9l0.2-3.6
			c0.1-0.2,0.1-0.5,0.1-0.8c0-0.6,0-1.3,0.1-1.9c0.1-1.4,0.2-2.8,0.4-4.2c0.2-2.5,0.4-5,0.3-7.5c-0.1-0.9-0.1-1.9-0.5-2.7v-0.4
			c0.1-0.1,0.2-0.2,0.3-0.2c1.6-0.2,3.3-0.4,5-0.4c0.3-0.1,0.5,0,0.7,0c0.4,1.3,0.5,1.4,1.6,2.1C329.7,70.5,329.8,70.5,329.8,70.5z"
			/>
		<path d="M333.7,106.3c-0.5-1.2-0.9-1.6-2.1-1.6c-0.5,0-1.1,0-1.5,0.2c-1.3,0.2-1.7,1.6-1.1,2.5c0.5,1.2,1.5,1.5,2.8,1.8
			c0.2-0.2,0.8-0.3,1-0.6C333.7,108.3,333.9,107.1,333.7,106.3z"/>
	</g>
	<g>
		<path d="M194.9,143.3c-0.3,0-0.7,0.1-1,0.3c-0.4,0.2-0.7,0.5-1,0.7c-0.2,0.2-0.4,0.5-0.5,0.8c-0.1,0.3-0.3,0.6-0.4,0.9
			c-1.3,2.4-2.5,4.7-3.8,7c-1.2,2.3-2.6,4.7-4,7c-0.5,0.8-1.1,1.6-1.8,2.3c-0.7,0.7-1.5,1.4-2.3,2.1c-0.9,0.7-1.7,1.1-2.3,1
			c-0.6-0.1-1.1-0.6-1.4-1.6c-0.4-1.6-0.8-3.2-1.1-4.8c-0.3-1.6-0.6-3.2-0.9-4.9c-0.1-0.5-0.1-0.9,0.1-1.1c0.2-0.3,0.6-0.5,1.1-0.8
			c1.5-0.8,2.9-1.7,4.1-2.8c1.2-1.1,2.3-2.3,3.1-3.6c0.9-1.3,1.5-2.6,2-4.1c0.5-1.4,0.7-2.8,0.7-4.2c0-1-0.2-1.8-0.5-2.7
			c-0.3-0.8-0.8-1.6-1.3-2.2c-0.5-0.6-1.2-1.1-1.9-1.5c-0.7-0.3-1.5-0.5-2.4-0.5c-1.6,0-3,0.4-4.2,1.1c-1.3,0.7-2.5,1.7-3.6,2.9
			c-1.5,1.7-2.7,3.5-3.6,5.4c-0.9,1.9-1.5,3.9-1.8,5.9c-0.4,2.4-0.7,4.7-0.7,7c0,1.8,0.1,3.6,0.2,5.3c-0.1,0.3-0.3,0.6-0.4,0.9
			c-0.7,1.6-1.5,3.2-2.2,4.9c-0.3-0.1-0.4-0.2-0.5-0.2c0-1.1,0-2.2,0-3.3c0-1.1,0-2.2,0-3.3c0-1.1,0-2.3,0.1-3.4
			c0-1.1,0-2.2-0.1-3.3c-0.1-1.2-0.2-2.5-0.4-3.7c-0.1-1.3-0.4-2.5-0.8-3.6c-0.4-1.1-1-2-1.7-2.6c-0.7-0.6-1.5-1-2.4-1.1
			c-0.9-0.1-1.7,0-2.6,0.3c-0.9,0.4-1.6,1-2.2,1.9c-0.6,0.9-1.3,1.9-2,2.8c-0.7,0.9-1.4,1.9-2.1,2.9c0.1-1.3,0.1-2.7,0.2-3.9
			c0.1-1.3,0.1-2.6,0.2-3.9c0.1-3.3,0.3-6.7,0.4-10c0.1-3.3,0.3-6.6,0.4-10c0-0.5,0-0.9-0.1-1.4c-0.1-0.5-0.2-0.9-0.3-1.4
			c-0.3-1-0.8-1.7-1.6-2.2c-0.8-0.5-1.6-0.7-2.6-0.6c-0.9,0.1-1.7,0.4-2.3,1c-0.7,0.6-1.1,1.4-1.3,2.4c-0.1,0.5-0.2,1-0.2,1.5
			c0,0.5-0.1,1-0.1,1.5c-0.3,4.8-0.5,9.6-0.8,14.3c-0.2,4.7-0.5,9.5-0.7,14.3c0,0.3,0,0.6,0,1c-0.4,1.7-0.8,3.5-1.2,5.2
			c-0.6,2.7-1.3,5.4-1.9,8.1c-0.1,0.5-0.3,0.9-0.5,1.4c-0.2,0.5-0.3,0.9-0.5,1.4c-0.1,0-0.2,0-0.4,0c-0.6-3.2-1-6.5-1.3-9.7
			c-0.3-3.3-0.5-6.5-0.6-9.8c-0.1-3.3-0.2-6.6-0.2-9.9c0-3.3,0-6.7,0.1-10c0.7,0,1.3,0,1.9-0.1c0.6,0,1.1,0,1.7-0.1
			c1.5-0.1,2.2-0.6,2.2-1.7c0-0.5-0.2-0.9-0.6-1.2c-0.4-0.3-0.9-0.5-1.6-0.4c-0.5,0-1.1,0-1.7,0c-0.6,0-1.2,0-1.9,0.1
			c0-1,0.1-2,0.1-3c0.1-0.9,0.1-1.9,0-2.8c-0.1-1.1-0.4-1.9-1-2.5c-0.6-0.6-1.4-0.9-2.3-1c-0.9,0-1.8,0.3-2.5,0.9
			c-0.7,0.6-1.2,1.4-1.4,2.5c-0.3,1.6-0.5,3.1-0.6,4.7c0,0.6-0.2,1-0.4,1.2c-0.2,0.2-0.6,0.3-1.2,0.3c-0.4,0-0.7,0-1.1,0.1
			c-0.4,0.1-0.8,0.2-1.1,0.3c-0.3,0.2-0.7,0.4-1,0.7c-0.4,0.3-0.5,0.6-0.6,0.9c-0.1,0.2,0,0.4,0,0.6c0.1,0.2,0.2,0.3,0.3,0.4
			c0.2,0.1,0.3,0.2,0.6,0.3c0.2,0.1,0.4,0.1,0.6,0.1c0.6,0.1,1.2,0.1,1.7,0.1c0.6,0,1.2,0,1.9,0.1c0,0.3,0,0.6,0,0.9
			c0,0.3,0,0.6,0,0.9c0.1,4.4,0.1,8.7,0.1,13c0,4.3,0.1,8.7,0.2,13c0.1,2.4,0.3,4.8,0.7,7.1c0.4,2.3,1.1,4.6,2.1,6.7
			c0.3,0.6,0.6,1.2,1,1.7c0.4,0.6,0.8,1.1,1.2,1.5c0.4,0.4,0.9,0.8,1.4,1c0.5,0.2,1,0.3,1.6,0.2c0.5,0,1.1-0.2,1.6-0.4
			c0.5-0.3,1-0.6,1.4-1.1c0.5-0.6,1-1.2,1.5-1.9c0.4-0.7,0.8-1.4,1-2.1c0,0.4,0.1,0.9,0.2,1.4c0.1,0.9,0.4,1.7,0.7,2.5
			c0.2,0.6,0.6,1.1,1,1.4c0.5,0.3,0.9,0.5,1.5,0.6c0.5,0,1-0.1,1.6-0.3c0.5-0.3,0.9-0.7,1.3-1.3c0.3-0.5,0.6-1.1,0.8-1.7
			c0.2-0.6,0.4-1.2,0.4-1.9c0.3-2,0.5-4,0.7-6c0.2-2,0.4-4,0.6-6c0.3-2,0.9-3.9,1.9-5.5c1-1.6,2.2-3.1,3.7-4.5l0.4,0.1
			c0,0.5,0,1.1,0.1,1.6c0,0.6,0,1.1,0.1,1.6c0,1.9,0,3.9,0,5.8c0,1.9,0,3.8,0.1,5.7c0.1,1.1,0.2,2.2,0.4,3.3
			c0.2,1.1,0.5,2.1,0.9,3.2c0.3,0.9,0.8,1.7,1.4,2.2c0.6,0.6,1.2,0.9,1.9,1c0.7,0.1,1.4,0.1,2.2-0.2c0.8-0.3,1.5-0.8,2.2-1.5
			c0.5-0.5,1-1.1,1.4-1.7c0.4-0.6,0.8-1.2,1.1-1.9c0.3-0.6,0.5-1.3,0.8-1.9c0.1,0.3,0.1,0.6,0.2,0.8c0.3,1.6,1,3.1,2,4.4
			c0.7,1,1.5,1.7,2.5,2.2c1,0.5,2,0.8,3.1,0.8c1.1,0,2.3-0.2,3.5-0.7c1.2-0.5,2.3-1.2,3.4-2.1c1-0.9,1.9-1.8,2.8-2.8
			c0.9-1,1.6-2.1,2.3-3.2c1.2-2,2.4-4.1,3.5-6.2c1.1-2.1,2.2-4.2,3.2-6.3c0.5-1,1-2,1.4-3c0.4-1,0.9-2,1.3-3
			c0.2-0.4,0.3-0.8,0.1-1.2C195.6,143.5,195.3,143.4,194.9,143.3z M175,143.7c0.5-1.9,1.2-3.7,2.3-5.5c0.2-0.3,0.5-0.6,0.8-0.9
			c0.3-0.3,0.7-0.5,1-0.8c0.3,0.3,0.6,0.5,1,0.7c0.3,0.2,0.5,0.5,0.6,0.9c0.1,0.7,0.2,1.4,0.2,2.1c0,0.7-0.1,1.4-0.3,2.1
			c-0.5,1.5-1.3,2.8-2.3,4c-1,1.2-2.3,2.3-3.8,3.3C174.4,147.5,174.6,145.5,175,143.7z"/>
		<path d="M231.3,125.8c0.4,0,0.8-0.1,1.1-0.3c0.4-0.2,0.7-0.4,1-0.7c0.3-0.3,0.5-0.6,0.7-0.9c0.2-0.3,0.3-0.7,0.4-1.1
			c0.1-0.7-0.1-1.2-0.4-1.6c-0.4-0.4-0.9-0.6-1.6-0.6c-0.4,0-0.7,0.1-1.1,0.3c-0.3,0.2-0.7,0.4-1,0.7c-0.3,0.3-0.5,0.6-0.7,0.9
			c-0.2,0.3-0.3,0.7-0.4,1c-0.1,0.7,0,1.3,0.4,1.8C230.1,125.6,230.6,125.8,231.3,125.8z"/>
		<path d="M310.1,143.9c-0.1-0.3-0.4-0.5-0.8-0.6c-0.3,0-0.7,0.1-1,0.3c-0.4,0.2-0.7,0.5-1,0.7c-0.2,0.2-0.4,0.5-0.5,0.8
			c-0.1,0.3-0.3,0.6-0.4,0.9c-1.3,2.4-2.5,4.7-3.8,7c-1.2,2.3-2.6,4.7-4,7c-0.5,0.8-1.1,1.6-1.8,2.3c-0.7,0.7-1.5,1.4-2.3,2.1
			c-0.9,0.7-1.7,1.1-2.3,1c-0.6-0.1-1.1-0.6-1.4-1.6c-0.4-1.6-0.8-3.2-1.1-4.8c-0.3-1.6-0.6-3.2-0.9-4.9c-0.1-0.5-0.1-0.9,0.1-1.1
			c0.2-0.3,0.6-0.5,1.1-0.8c1.5-0.8,2.9-1.7,4.1-2.8c1.2-1.1,2.3-2.3,3.1-3.6c0.9-1.3,1.5-2.6,2-4.1c0.5-1.4,0.7-2.8,0.7-4.2
			c0-1-0.2-1.8-0.5-2.7c-0.3-0.8-0.8-1.6-1.3-2.2c-0.5-0.6-1.2-1.1-1.9-1.5c-0.7-0.3-1.5-0.5-2.4-0.5c-1.6,0-3,0.4-4.2,1.1
			c-1.3,0.7-2.5,1.7-3.6,2.9c-1.5,1.7-2.7,3.5-3.6,5.4c-0.9,1.9-1.5,3.9-1.8,5.9c-0.4,2.4-0.7,4.7-0.7,7c0,0.7,0,1.5,0,2.2
			c-0.2,0.6-0.4,1.2-0.6,1.8c-0.6,1.6-1.1,3.2-1.7,4.9l-1-0.1c-0.1-0.8-0.3-1.6-0.4-2.3c-0.1-0.7-0.2-1.5-0.3-2.2
			c-0.1-2.6-0.2-5.2-0.3-7.8c-0.1-2.6-0.2-5.2-0.3-7.8c-0.1-1.3-0.2-2.6-0.5-3.8c-0.3-1.2-0.8-2.4-1.6-3.5c-0.9-1.1-1.9-1.8-3-1.8
			c-1.2-0.1-2.2,0.4-3.2,1.3c-0.5,0.5-1,1.1-1.5,1.8c-0.4,0.6-0.9,1.3-1.3,1.9c-0.1,0.2-0.3,0.5-0.4,0.7c-0.1,0.2-0.3,0.5-0.4,0.8
			l-1.3,2.6c-0.1-0.7-0.2-1.2-0.3-1.5c0-0.3-0.1-0.5-0.1-0.7c-0.1-0.4-0.1-0.6-0.2-0.8c-0.2-0.5-0.3-1-0.5-1.5
			c-0.2-0.5-0.3-1-0.5-1.5c-0.2-0.5-0.4-1-0.6-1.5c-0.2-0.5-0.4-1-0.6-1.4c-0.5-0.9-1.1-1.5-1.9-1.9c-0.8-0.4-1.7-0.5-2.7-0.4
			c-0.9,0.1-1.6,0.5-2.2,1.1c-0.5,0.6-1,1.3-1.3,2.2c-0.5,1.6-1,3.1-1.6,4.6c-0.5,1.5-1.1,3.1-1.6,4.6c-0.1,0.3-0.2,0.7-0.4,1.1
			c-0.2,0.4-0.4,1.2-0.8,2.2c0-1.3,0-2.6,0-3.8c0-1.2,0-2.3,0-3.3c0-1,0-2.1,0-3s0-1.9,0-2.9c0-0.5-0.1-0.9-0.1-1.4
			c-0.1-0.5-0.1-1-0.3-1.4c-0.2-0.7-0.5-1.2-1-1.6c-0.5-0.4-1-0.6-1.6-0.5c-0.5,0.1-1,0.2-1.6,0.5c-0.5,0.3-1,0.7-1.3,1.1
			c-0.3,0.4-0.5,0.8-0.6,1.4c-0.1,0.6-0.2,1.1-0.2,1.7c-0.1,3.3-0.1,6.6-0.2,9.9c-0.1,2.7-0.1,5.4,0,8.1c-0.5,1.6-1.1,3.1-1.6,4.7
			c-0.7,2-1.4,3.9-2.1,5.9c-0.2,0.5-0.5,1-0.8,1.6c-0.3,0.5-0.6,1.1-0.9,1.6c-0.1,0-0.2,0-0.4,0c-0.1-0.5-0.3-1-0.4-1.5
			c-0.1-0.5-0.2-1-0.3-1.5c-0.6-4.1-0.9-8.2-0.8-12.3c0.1-4.1,0.3-8.3,0.8-12.5c0.1-0.5,0.1-0.9,0.2-1.4c0.1-0.5,0.1-0.9,0.1-1.4
			c-0.1-0.8-0.4-1.4-1-1.8c-0.6-0.5-1.3-0.7-2.2-0.6c-0.9,0-1.7,0.3-2.4,0.8c-0.7,0.5-1.2,1.1-1.5,1.9c-0.1,0.4-0.2,0.7-0.3,1.1
			c-0.1,0.4-0.2,0.8-0.2,1.2c-0.7,4.4-1,8.7-1.1,13c0,0.8,0,1.5,0,2.3c-0.3,1.2-0.5,2.3-0.8,3.5c-0.6,2.7-1.3,5.4-1.9,8.1
			c-0.1,0.5-0.3,0.9-0.5,1.4c-0.2,0.5-0.3,0.9-0.5,1.4c-0.1,0-0.2,0-0.4,0c-0.6-3.2-1-6.5-1.3-9.7c-0.3-3.3-0.5-6.5-0.6-9.8
			c-0.1-3.3-0.2-6.6-0.2-9.9c0-3.3,0-6.7,0.1-10c0.7,0,1.3,0,1.9-0.1c0.6,0,1.1,0,1.7-0.1c1.5-0.1,2.2-0.6,2.2-1.7
			c0-0.5-0.2-0.9-0.6-1.2c-0.4-0.3-0.9-0.5-1.6-0.4c-0.5,0-1.1,0-1.7,0c-0.6,0-1.2,0-1.9,0.1c0-1,0.1-2,0.1-3c0.1-0.9,0.1-1.9,0-2.8
			c-0.1-1.1-0.4-1.9-1-2.5c-0.6-0.6-1.4-0.9-2.3-1c-0.9,0-1.8,0.3-2.5,0.9c-0.7,0.6-1.2,1.4-1.4,2.5c-0.3,1.6-0.5,3.1-0.6,4.7
			c0,0.6-0.2,1-0.4,1.2c-0.2,0.2-0.6,0.3-1.2,0.3c-0.4,0-0.7,0-1.1,0.1c-0.4,0.1-0.8,0.2-1.1,0.3c-0.3,0.2-0.7,0.4-1,0.7
			c-0.3,0.3-0.5,0.6-0.6,0.9c-0.1,0.2,0,0.4,0,0.6c0.1,0.2,0.2,0.3,0.3,0.4c0.2,0.1,0.3,0.2,0.6,0.3c0.2,0.1,0.4,0.1,0.6,0.1
			c0.6,0.1,1.2,0.1,1.7,0.1c0.6,0,1.2,0,1.9,0.1c0,0.3,0,0.6,0,0.9c0,0.3,0,0.6,0,0.9c0.1,4.4,0.1,8.7,0.1,13c0,4.3,0.1,8.7,0.2,13
			c0.1,2.4,0.3,4.8,0.7,7.1c0.4,2.3,1.1,4.6,2.1,6.7c0.3,0.6,0.6,1.2,1,1.7c0.4,0.6,0.8,1.1,1.2,1.5c0.4,0.4,0.9,0.8,1.4,1
			c0.5,0.2,1,0.3,1.6,0.2c0.5,0,1.1-0.2,1.6-0.4c0.5-0.3,1-0.6,1.4-1.1c0.5-0.6,1-1.2,1.5-1.9c0.4-0.7,0.8-1.4,1-2.2
			c0.4-1.2,0.8-2.4,1.1-3.6c0.1,0.3,0.2,0.6,0.3,0.9c0.3,0.9,0.7,1.7,1.1,2.6c0.5,0.9,1.1,1.7,2,2.2c0.9,0.5,2,0.7,3.3,0.4
			c1.3-0.2,2.4-0.7,3.1-1.6c0.8-0.8,1.4-1.7,1.8-2.8c0.6-1.2,1.1-2.4,1.6-3.6c0.5-1.2,0.9-2.4,1.4-3.6c0-0.1,0-0.1,0.1-0.2
			c0.1,0.5,0.2,1,0.3,1.6c0.1,0.7,0.4,1.2,0.9,1.6c0.5,0.4,1.1,0.6,1.9,0.5c0.7-0.1,1.2-0.3,1.6-0.8c0.3-0.5,0.6-1.1,0.8-1.8
			c0.8-3,1.6-5.9,2.4-8.8c0.8-2.9,1.6-5.9,2.4-8.8c0.1-0.3,0.2-0.6,0.3-0.9c0.1-0.1,0.1-0.3,0.2-0.5c0.1-0.2,0.2-0.5,0.4-0.9
			c0.2,0.4,0.4,0.6,0.4,0.8c0.1,0.2,0.1,0.3,0.2,0.4c0,0.1,0,0.2,0,0.3c0,0.1,0,0.2,0,0.3c0.3,2.1,0.6,4.3,0.9,6.4
			c0.3,2.1,0.6,4.3,1,6.4c0.2,1,0.5,1.8,1.1,2.5c0.6,0.7,1.3,1.3,2.3,1.7c0.7,0.3,1.3,0.3,1.8,0.1c0.5-0.2,0.9-0.7,1.2-1.4
			c0.3-0.8,0.5-1.7,0.7-2.5c0.2-0.8,0.4-1.7,0.7-2.5c0.6-1.8,1.2-3.5,1.7-5.2c0.6-1.7,1.2-3.4,1.8-5.2c0.1-0.2,0.1-0.4,0.2-0.6
			c0.1-0.2,0.2-0.3,0.3-0.5c0.1-0.2,0.3-0.3,0.4-0.5c0.1-0.2,0.3-0.5,0.6-1c0.2,0.7,0.4,1.3,0.4,1.7c0,0.4,0,0.8,0,1.1
			c-0.2,1.6-0.3,3.1-0.5,4.7c-0.1,1.6-0.3,3.1-0.3,4.7c-0.1,1.6-0.1,3.1,0,4.7c0.1,1.6,0.2,3.1,0.4,4.7c0.2,1.7,0.6,3.4,1,4.9
			c0.4,1.6,1.1,3.1,2,4.5c0.6,0.9,1.2,1.5,2,1.9c0.8,0.4,1.5,0.6,2.3,0.7c0.8,0,1.5-0.2,2.3-0.6c0.7-0.4,1.4-1.1,2-1.9
			c1-1.6,1.8-3.3,2.3-5.1c0,0,0,0,0,0c0.4,1.5,1,3,1.9,4.3c0.7,1,1.5,1.7,2.5,2.2c1,0.5,2,0.8,3.1,0.8c1.1,0,2.3-0.2,3.5-0.7
			c1.2-0.5,2.3-1.2,3.4-2.1c1-0.9,1.9-1.8,2.8-2.8c0.9-1,1.6-2.1,2.3-3.2c1.2-2,2.4-4.1,3.5-6.2c1.1-2.1,2.2-4.2,3.2-6.3
			c0.5-1,1-2,1.4-3c0.4-1,0.9-2,1.3-3C310.2,144.6,310.2,144.2,310.1,143.9z M289.4,143.7c0.5-1.9,1.2-3.7,2.3-5.5
			c0.2-0.3,0.5-0.6,0.8-0.9c0.3-0.3,0.7-0.5,1-0.8c0.3,0.3,0.6,0.5,1,0.7c0.3,0.2,0.5,0.5,0.6,0.9c0.1,0.7,0.2,1.4,0.2,2.1
			c0,0.7-0.1,1.4-0.3,2.1c-0.5,1.5-1.3,2.8-2.3,4c-1,1.2-2.3,2.3-3.8,3.3C288.7,147.5,288.9,145.5,289.4,143.7z"/>
	</g>
	<g>
		<path d="M127.8,184.5c-0.7-0.2-1.4-0.2-2-0.3c-1.4-0.1-4.9,0-3.9,1.1c0.3,0.3,0.7,0.6,0.9,0.7c0.3,0.1,0.5,0.3,0.9,0.4
			c-0.3,0.9-0.5,2-0.9,2.8c-0.1,0.6-0.3,1.1-0.5,1.8c-0.4,2.6-1,5-1.6,7.4c-0.5,2.2-0.9,4.1-1.5,6c-0.6,2.2-1,4.3-1.5,6.4
			c-0.2,0.7-0.3,1.4-0.7,2c-0.4-0.5-0.3-1.1-0.4-1.6l-2.8-14.3l-0.3-1.4c-0.9-2.3-1.6-1.8-3.8-1.8c-0.7,0-0.9,2-1.1,3
			c-0.1,0.3-0.3,1-0.5,1.3l-2.5,8.8c-0.9,2.3-1.8,4.6-2.6,6.9c-0.1,0.2-0.2,0.3-0.4,0.7c-0.2-0.7-0.3-1.4-0.3-2
			c0-2.2-0.3-4.2-0.4-6.4c-0.2-1.7-0.3-3.3-0.4-5.1c-0.2-2.1-0.3-4.3-0.6-6.5c-0.1-1.1-0.3-2.4-0.5-3.5c-0.1-1.4-0.3-2.6-0.5-4
			c0.1-0.1,0.3-0.5,0.4-0.9c0.3-0.3,0.1-0.9-0.3-0.9c-0.3-0.1-0.7-0.1-0.9-0.3l-4.3-0.2l-0.8-0.2c-0.4,0-0.6,0.1-0.7,0.5
			c-0.1,0.4,0.1,0.7,0.4,0.9c0.3,0.3,0.6,0.3,1,0.5c0.7,0.2,0.8,0.4,0.8,0.9c0,1.6,0.9,9.9,1.1,12.5c0.2,3.5,0.3,7.2,0.6,10.7
			c0.1,2,0.3,3.9,0.7,5.7c0.3,2.3,0.7,4.7,1.3,7c0.2,1.8,1.2,2.5,2.4,3c0.3,0.2,0.6,0,0.8-0.3c0.1-0.3,0.2-0.5,0.3-0.7
			c0.3-1.4,0.8-2.8,1.4-4.3c0.7-1.6,1.3-3.2,1.8-5.1c0.4-1.3,0.7-2.6,1.3-3.8c0.7-1.8,1.3-3.4,1.8-5.4c0.1-0.7,0.3-1.6,0.5-2.3
			l0.6-3.5c0-0.1,0.1-0.2,0.2-0.3c0.1,0.1,0.2,0.1,0.2,0.2c1.6,6.4,2.2,9.8,2.6,12c0.5,3,1.2,6.8,2.2,9.7c0.4,1.4,1.3,2.4,1.7,2.9
			c0.4,0.5,1,0.2,1.2-0.5c0.3-0.7,0.4-1.3,0.5-1.8c0.7-2.2,1.4-5.1,1.7-7.4c0.1-0.3,0.1-0.6,0.2-0.9c0.5-1.7,0.9-3.2,1.1-4.8
			c0.1-1,0.4-2.2,0.7-3c0.3-1.3,0.8-2.8,1.1-4.2c0.1-0.6,0.1-1,0.2-1.3c0.3-1.6,0.5-3,0.8-4.2c0.4-1.6,1.3-8,2.1-10.5
			c0-0.1,1-0.1,1.7-0.5C128.9,185.8,129.2,184.9,127.8,184.5z"/>
		<path d="M141.1,185.8c-0.4-0.1-0.7-0.3-1-0.3c-1.1-0.1-2.2-0.3-3.1-0.3c-1.4,0-2.6,0.2-3.8,0.3c-0.6,0-1,0.3-1.5,0.7
			c-0.2,0.2-0.1,0.7,0.1,0.9c0.5,0.1,0.9,0.3,1.2,0.2h1.8v2.1c-0.1,0.7-0.2,1.4-0.2,2.2c-0.2,2.4-0.3,4.9-0.3,7.2
			c0,0.9-0.1,1.8-0.1,2.6c-0.1,2.2-0.1,4.4-0.1,6.5c-0.1,2.7,0.1,5.4,0.1,8.1c0,1.6-0.1,3.3,0,4.9c0,0.9-0.1,1.6-0.4,2.4
			c-0.1,0.4-0.3,0.8-0.7,0.8l-1.3,0.4c-0.1,0.1-0.1,0.4,0,0.5c0.2,0.5,0.8,0.7,1.4,0.7c0.8-0.1,2.8,0.1,3.6,0.1
			c0.6-0.1,1.2,0,1.8-0.2c0.3-0.1,0.6-0.1,0.9-0.3c0.1-0.2,0.3-0.3,0.2-0.6l-0.5-0.3c-0.4-0.1-0.8,0.1-1.3-0.1
			c0.1-0.1,0.2-0.4,0.1-0.5c0.1-0.8,0.3-1.5,0.3-2.2c0.1-0.7,0-1.4-0.1-2.1l-0.1-5.4c0.1-1.1,0.1-2.2,0.1-3.3c0.1-1.4,0-3,0-4.4
			c0.1-1.8,0.2-3.6,0.3-5.4c0.1-0.9,0.1-2,0.1-3c0-1.3,0-2.8,0.2-4.2c0.1-0.5,0.1-0.9,0.1-1.3c0.1-0.5,0-0.9,0.1-1.3
			c0.1-0.6,0.1-1.1,0.1-1.8c-0.1-0.3-0.1-0.8,0-1.3c-0.1-0.9,0.1-0.9,1.1-1c0.2,0,0.4,0.1,0.6,0.1c0.1,0,0.3-0.2,0.5-0.2
			c0.4-0.1,0.6-0.8,0.3-1.1C141.4,186.1,141.2,185.8,141.1,185.8z"/>
		<path d="M165.9,220.2c0-0.6-0.3-0.9-0.7-1.3c-0.6-0.1-1.1,0-1.3,0.6c-0.2,0.3-0.4,0.6-0.5,0.9c-0.3,0.9-0.9,1.6-1.4,2.4
			c-0.3,0.4-0.7,0.7-1.2,0.9c-1.1,0.3-2.3,0.7-3.5,0.6c-1.1-0.1-3,0.1-4.5,0.2c-0.2-1.5-0.3-2.8-0.2-4.1c0-0.4,0.1-0.8,0.1-1.1
			c-0.1-3.2,0.1-6.1,0.5-9.2l0.2-1.6c0.2-2.7,0.4-5.3,0.7-7.9l0.4-5.4c0-0.8-0.1-1.7,0-2.5c0.1-1.6,0.2-3.1,0.3-4.8
			c0-0.1,0.1-0.3,0.1-0.4c0.7-0.3,1.3-0.3,2.1-0.3c0.4,0,0.6-0.5,0.9-0.7c0.1-0.2,0.1-0.6-0.1-0.7c-0.1-0.2-0.5-0.5-0.7-0.5
			c-1.1,0.1-2.2-0.3-3.4-0.1c-0.7,0.1-1.4,0-2.2,0h-1.6c-0.5,0.1-1.1,0.2-1.6,0.3c-0.1,0.1-0.3,0.3-0.3,0.5c0,0.1,0.2,0.4,0.3,0.5
			c0.5,0.3,0.9,0.5,1.4,0.7l0.1,0.9c0.2,1.3,0.2,2.6,0.1,3.9c-0.1,0.4-0.1,0.8-0.1,1.2c-0.1,1.5-0.1,3.2-0.3,4.8
			c-0.3,3.2-0.6,6.3-0.9,9.6c-0.3,4-0.7,8.2-0.7,12.3c0,1.6-0.1,3,0.3,4.5c0.1,0.2-0.1,0.5-0.3,0.6l-1,0.5c-0.3,0.1-0.7,0.4-0.9,0.6
			c-0.1,0.1-0.2,0.3-0.2,0.6c0.1,0.1,0.3,0.4,0.4,0.4c6.7,0,6.3-0.5,7.9-0.5c0.6,0,1.1-0.1,1.7-0.1h1.1c2,0.1,4-0.2,5.9-0.7
			c1.1-0.2,2.1-1,3-2c0.5-0.8,0.9-1.7,0.7-2.8C165.9,220.9,166,220.5,165.9,220.2z"/>
		<path d="M188.8,220.2c0-0.6-0.3-0.9-0.7-1.3c-0.6-0.1-1.1,0-1.3,0.6c-0.2,0.3-0.4,0.6-0.5,0.9c-0.3,0.9-0.9,1.6-1.4,2.4
			c-0.3,0.4-0.7,0.7-1.2,0.9c-1.1,0.3-2.3,0.7-3.5,0.6c-1.1-0.1-3,0.1-4.5,0.2c-0.2-1.5-0.3-2.8-0.2-4.1c0-0.4,0.1-0.8,0.1-1.1
			c-0.1-3.2,0.1-6.1,0.5-9.2l0.2-1.6c0.2-2.7,0.4-5.3,0.7-7.9l0.4-5.4c0-0.8-0.1-1.7,0-2.5c0.1-1.6,0.2-3.1,0.3-4.8
			c0-0.1,0.1-0.3,0.1-0.4c0.7-0.3,1.3-0.3,2.1-0.3c0.4,0,0.6-0.5,0.9-0.7c0.1-0.2,0.1-0.6-0.1-0.7c-0.1-0.2-0.5-0.5-0.7-0.5
			c-1.1,0.1-2.2-0.3-3.4-0.1c-0.7,0.1-1.4,0-2.2,0h-1.6c-0.5,0.1-1.1,0.2-1.6,0.3c-0.1,0.1-0.3,0.3-0.3,0.5c0,0.1,0.2,0.4,0.3,0.5
			c0.5,0.3,0.9,0.5,1.4,0.7l0.1,0.9c0.2,1.3,0.2,2.6,0.1,3.9c-0.1,0.4-0.1,0.8-0.1,1.2c-0.1,1.5-0.1,3.2-0.3,4.8
			c-0.3,3.2-0.6,6.3-0.9,9.6c-0.3,4-0.7,8.2-0.7,12.3c0,1.6-0.1,3,0.3,4.5c0.1,0.2-0.1,0.5-0.3,0.6l-1,0.5c-0.3,0.1-0.7,0.4-0.9,0.6
			c-0.1,0.1-0.2,0.3-0.2,0.6c0.1,0.1,0.3,0.4,0.4,0.4c6.7,0,6.3-0.5,7.9-0.5c0.6,0,1.1-0.1,1.7-0.1h1.1c2,0.1,4-0.2,5.9-0.7
			c1.1-0.2,2.1-1,3-2c0.5-0.8,0.9-1.7,0.7-2.8C188.8,220.9,188.9,220.5,188.8,220.2z"/>
		<path d="M232.6,185.4c-0.9-0.3-2-0.2-3-0.1c-0.3,0.1-0.5,0.1-0.9,0.1c-1.2,0-2.2,0.4-3.4,0.6c-0.4,0.1-0.7,0.3-0.9,0.5
			c-0.3,0.3-0.2,0.8,0.2,0.9c0.2,0.1,0.4,0.1,0.6,0.1c0.4,0.1,0.5,0.3,0.6,0.8c-0.1,0.1-0.1,0.1-0.1,0.3c-0.5,11.7-0.5,13-0.4,14.2
			c-0.1,0.7,0,1.3,0,1.8c0,0.6-0.1,1.1,0,1.7c0.1,2.7-0.1,5.3-0.1,8c0,0.2-0.1,0.3-0.1,0.9l-0.5-0.8c-0.5-1-1-2.2-1.5-3.1
			c-0.3-0.7-0.5-1.6-0.9-2.3c-0.3-0.7-0.6-1.6-1-2.4c-0.5-1-2.8-6.7-3.6-8c-1.3-2.1-2.4-4.3-3.2-6.6c-0.6-1.8-1.5-3.3-2.4-4.9
			c-0.9-2-1.9-0.8-3.2-1.1l-2.7,0.2c-1,0-1.2,0.9-1.4,1.1c-0.5,0.7-0.1,1.7,1.1,1.6c0.3,0,0.5-0.1,0.7-0.1c0.5,0.1,0.7,0.3,0.7,0.7
			c0,1.1,0.1,2.2,0.1,3.2c0,3.2-0.1,6.4-0.3,9.6c-0.2,2.4-0.5,4.8-0.2,7.1l-0.1,0.3c-0.1,2-0.2,3.9-0.2,5.9c0,1.8-0.1,3.6-0.2,5.5
			c0,0.9,0,1.7-0.1,2.4c-0.5,0.4-1,0.7-1.3,0.9c-0.4,0.4-1.5,0.6-1.6,0.8c-0.1,0.2,0,0.6,0.2,0.7c0.2,0.2,0.5,0.2,0.7,0.2
			c0.3-0.1,0.7-0.2,1.2-0.3c0.8-0.2,1.6-0.2,2.5,0c1.2,0.3,2.2-0.3,2.2-1.6c0.1-1.1,0.3-2.1,0.1-3.2v-0.6c0.1-1.3,0.3-2.4,0.3-3.7
			c0.1-2.5,0.3-5,0.3-7.6c0.1-2.6,0.2-5.1,0.2-7.7c0.1-2.2,0.2-4.3,0.3-6.4c0-0.1,0.1-0.2,0.3-0.3c0.3,0.6,0.7,1.1,0.9,1.9
			c0.8,1.6,1.6,3.3,2.4,4.9c0.5,1.1,1,2.2,1.6,3.2c0.9,2,1.9,4,2.6,6.1l3.9,10.5c0.6,0.9,1.4,1.9,2.1,2.9c0.3,0.5,0.8,0.9,1.6,0.9
			c0.7,0.1,1.1-0.1,1.3-0.7c0.2-0.4,0.7-5.8,0.8-8.4c0-1.3-0.3-2.7,0.7-14.2l0.2-4.4c0-1.1-0.1-2.2-0.1-3.4c-0.1-0.5,0-0.9,0-1.4
			c-0.3-1.8,0.2-3.7-0.3-5.5c0.2-0.1,0.3-0.1,1.4-0.1c0.9-0.1,1.5-0.4,2-0.7c0.3-0.1,0.5-0.5,0.3-0.8
			C233,185.7,232.8,185.5,232.6,185.4z"/>
		<path d="M254.7,185.9c-0.6-0.1-1.1-0.2-1.7-0.3c-0.5-0.1-0.8-0.1-1.3-0.1l-8.2-0.1c-1-0.1-2-0.1-3,0.1c-0.5,0.1-1,0.1-1.6,0.2
			c-0.9,0.1-1.7,0.3-2.6,0.5c-0.3,0.2-0.6,0.5-0.7,0.8c-0.1,0.7,0,1.3,0.3,2c0.1,0.4,0.4,0.5,0.7,0.5c0.3,0,0.6-0.1,0.7-0.5
			c0.1-0.2,0.1-0.5,0.3-0.7c0.1-0.2,0.4-0.3,0.7-0.2c0.1,0.1,0.3,0.3,0.3,0.4c0,0.5-0.1,1.2-0.1,1.8c0.1,1.3-0.1,2.6-0.2,3.9
			c-0.2,3-0.3,5.9-0.5,9c-0.1,1.8-0.1,3.4-0.2,5.2c-0.3,4.6-0.5,9.1-0.3,13.6v1.1c0,0.3,0.4,0.7,0.1,1.1c-0.4,0.2-0.8,0.1-1.3,0.1
			H235c-0.1,0-0.3,0.1-0.3,0.3c-0.1,0.3,0,0.6,0.1,0.8c0.3,0.1,0.5,0.3,0.7,0.3c1.4,0.5,3,0.8,4.5,0.8c1.6,0.1,3.2-0.1,4.8-0.2
			c0.9-0.1,1.8-0.1,2.7-0.2c0.5,0,0.9,0,1.4,0.1c1.5,0.2,3,0.1,4.5,0c0.3-0.1,0.6-0.1,0.8-0.4c0.4-0.4,0.7-1.1,0.8-1.7l0.2-2.2
			c0.1-0.6-0.1-0.9-0.6-1.3c-0.2-0.1-0.4-0.2-0.6-0.3c-0.3-0.2-0.7-0.1-0.9,0.3l-0.4,1.5c-0.1,0.5-0.4,0.7-0.8,0.8
			c-0.4,0.1-0.8,0.2-1.2,0.2l-2.3,0.2c-1.1,0-2.4,0.1-3.6,0.1c-0.6,0-1.1-0.1-1.8-0.2c-0.3-1.4-0.5-2.7-0.5-4.1
			c0-0.8,0.1-1.8,0.1-2.6c-0.1-3,0.3-6.1,0.5-9c0.1-0.3,0.1-0.7,0.5-0.9c0.6,0,1.3,0.2,2,0.3c0.7,0.1,1.4,0.1,2,0.1
			c0.1,0.3,0.2,0.3,0.2,0.4c0.2,1.3,0.9,1.8,1.8,2.4c0.5,0.5,1.1,0,1.1-0.7c0-0.3,0-0.6-0.1-0.9c0-0.9-0.1-1.8-0.2-2.7
			c-0.1-0.4-0.3-0.9-0.4-1.3c-0.2-0.5-0.5-0.7-1.1-0.9c-0.7-0.3-1.1,0.1-1.3,0.9v0.3c-0.1,0.3-0.3,0.5-0.4,0.6
			c-1.1,0.2-2.1,0.3-3.2,0.2c-0.4-0.1-0.6-0.3-0.6-0.9v-0.5c0.1-2.5,0.3-4.9,0.4-7.2c0.1-2.9,0.1-5.8-0.3-8.8c0,0,0-0.1,0.1-0.1
			c0.3-0.3,0.7-0.1,1.1-0.1l7.1,0.1c0.1,0,0.1,0.1,0.1,0.1c0.2,0.4,0.1,0.9,0,1.3c-0.3,1.1-0.1,2,0.7,2.7c0.2,0.1,0.3,0.5,0.5,0.6
			c0.8,0.9,1.6,0.9,1.9,0.1c0.1-0.1,0.1-0.3,0.1-0.5c0.1-1.1,0.3-2.4,0.5-3.6c0-0.2,0.1-0.4,0.1-0.7
			C255.6,186.6,255.3,186.1,254.7,185.9z"/>
		<path d="M283.8,185.9c-1.3-0.1-2.5-0.2-3.7-0.3c-0.5,0-1,0.5-0.7,1.1c0.1,0.3,0.3,0.7,0.5,0.8c0.5,0.4,0.5,0.9,0.3,1.3
			c-0.1,0.2-0.1,0.4-0.1,0.5c-1.5,3.6-2.6,7.2-3.8,10.9c-0.5,1.6-0.8,3.1-1.3,4.6l-3.8,11.1c-0.1,0.3-0.1,0.7-0.5,0.7
			c-0.3-0.1-0.4-0.3-0.5-0.6c-0.5-2.3-0.9-4.7-1.3-7.1c0-0.4-0.2-0.8-0.3-1.3c-0.5-2.4-1-5-1.3-7.6c-0.3-2.3-0.6-4.5-1.1-6.6
			c-0.1-0.9-0.5-1.8-0.5-2.8c-0.1-1.4-0.7-2.5-1.1-3.6c-1.1-0.7-2.1-0.7-3.2-0.6c-0.3,0.1-0.6,0.1-0.9,0.1c-0.9-0.1-1.8,0.2-2.5,0.5
			c-0.8,0.3-0.9,1.2-0.2,1.7c0.3,0.3,0.6,0.4,0.9,0.4c0.4,0.1,0.8,0.1,1.2,0.1c0.5,1.4,0.9,2.9,1.1,4.4c0.4,2.3,0.9,4.7,1.4,7.1
			c0.2,1.9,0.7,3.6,1.1,5.6c0.3,0.9,0.5,2,0.7,3c0.4,2,0.9,4,1.3,6.1c0.5,2.4,1.1,4.9,2,7.2c0.3,0.8,0.6,1.3,1.2,1.7
			c0.6,0.5,1.2,0.9,2,1c0.2-0.1,0.3-0.3,0.5-0.4c0.1-0.1,0.3-0.3,0.3-0.6c0.3-0.7,0.5-1.6,0.8-2.4l0.5-1.8c0.5-1.1,0.9-2.2,1.3-3.4
			c0.5-1.5,0.9-3,1.4-4.6c0.3-1.3,2.7-7.8,3.2-9.4c0.5-1.8,0.9-3.6,1.8-5.3c0.7-1.7,2.4-8.1,2.8-9.2c0.1-0.2,0.1-0.2,0.3-0.3
			c0.5-0.1,0.9,0,1.4,0c0.5-0.1,0.8-0.2,1.1-0.3c0.3-0.1,0.3-0.7,0.1-0.8C285.2,186.4,284.5,186.1,283.8,185.9z"/>
		<path d="M307.6,185.9c-0.6-0.1-1.1-0.2-1.7-0.3c-0.5-0.1-0.8-0.1-1.3-0.1l-8.2-0.1c-1-0.1-2-0.1-3,0.1c-0.5,0.1-1,0.1-1.6,0.2
			c-0.9,0.1-1.7,0.3-2.6,0.5c-0.3,0.2-0.6,0.5-0.7,0.8c-0.1,0.7,0,1.3,0.3,2c0.1,0.4,0.4,0.5,0.7,0.5c0.3,0,0.6-0.1,0.7-0.5
			c0.1-0.2,0.1-0.5,0.3-0.7c0.1-0.2,0.4-0.3,0.7-0.2c0.1,0.1,0.3,0.3,0.3,0.4c0,0.5-0.1,1.2-0.1,1.8c0.1,1.3-0.1,2.6-0.2,3.9
			c-0.2,3-0.3,5.9-0.5,9c-0.1,1.8-0.1,3.4-0.2,5.2c-0.3,4.6-0.5,9.1-0.3,13.6v1.1c0,0.3,0.4,0.7,0.1,1.1c-0.4,0.2-0.8,0.1-1.3,0.1
			h-1.4c-0.1,0-0.3,0.1-0.3,0.3c-0.1,0.3,0,0.6,0.1,0.8c0.3,0.1,0.5,0.3,0.7,0.3c1.4,0.5,3,0.8,4.5,0.8c1.6,0.1,3.2-0.1,4.8-0.2
			c0.9-0.1,1.8-0.1,2.7-0.2c0.5,0,0.9,0,1.4,0.1c1.5,0.2,3,0.1,4.5,0c0.3-0.1,0.6-0.1,0.8-0.4c0.4-0.4,0.7-1.1,0.8-1.7l0.2-2.2
			c0.1-0.6-0.1-0.9-0.6-1.3c-0.2-0.1-0.4-0.2-0.6-0.3c-0.3-0.2-0.7-0.1-0.9,0.3l-0.4,1.5c-0.1,0.5-0.4,0.7-0.8,0.8
			c-0.4,0.1-0.8,0.2-1.2,0.2l-2.3,0.2c-1.1,0-2.4,0.1-3.6,0.1c-0.6,0-1.1-0.1-1.8-0.2c-0.3-1.4-0.5-2.7-0.5-4.1
			c0-0.8,0.1-1.8,0.1-2.6c-0.1-3,0.3-6.1,0.5-9c0.1-0.3,0.1-0.7,0.5-0.9c0.6,0,1.3,0.2,2,0.3c0.7,0.1,1.4,0.1,2,0.1
			c0.1,0.3,0.2,0.3,0.2,0.4c0.2,1.3,0.9,1.8,1.8,2.4c0.5,0.5,1.1,0,1.1-0.7c0-0.3,0-0.6-0.1-0.9c0-0.9-0.1-1.8-0.2-2.7
			c-0.1-0.4-0.3-0.9-0.4-1.3c-0.2-0.5-0.5-0.7-1.1-0.9c-0.7-0.3-1.1,0.1-1.3,0.9v0.3c-0.1,0.3-0.3,0.5-0.4,0.6
			c-1.1,0.2-2.1,0.3-3.2,0.2c-0.4-0.1-0.6-0.3-0.6-0.9v-0.5c0.1-2.5,0.3-4.9,0.4-7.2c0.1-2.9,0.1-5.8-0.3-8.8c0,0,0-0.1,0.1-0.1
			c0.3-0.3,0.7-0.1,1.1-0.1l7.1,0.1c0.1,0,0.1,0.1,0.1,0.1c0.2,0.4,0.1,0.9,0,1.3c-0.3,1.1-0.1,2,0.7,2.7c0.2,0.1,0.3,0.5,0.5,0.6
			c0.8,0.9,1.6,0.9,1.9,0.1c0.1-0.1,0.1-0.3,0.1-0.5c0.1-1.1,0.3-2.4,0.5-3.6c0-0.2,0.1-0.4,0.1-0.7
			C308.5,186.6,308.2,186.1,307.6,185.9z"/>
		<path d="M336.9,225.2c-0.4-0.3-0.8-0.9-1.1-1.3c-0.3,0.1-0.5,0.1-0.7,0.4c-0.5,0.3-0.7,0.4-1.1,0.4c-0.3,0.1-0.6-0.3-0.9-0.5
			c-0.3-0.7-0.5-1.4-0.7-2.2c-0.3-1.4-0.5-3-0.3-4.5c0.1-0.4,0.1-0.7,0.1-1.1c0-1.5-0.3-4.8-0.6-6.1c-0.5-1.5-0.9-2.9-1.4-4.3
			c-0.5-0.9-0.9-1.6-1.3-2.1c-0.9-1.2-1.8-2.2-2.8-3.2c-0.2-0.3-0.3-0.5-0.6-0.7c4-1.3,5.5-4.5,6.3-5.4c0.9-1.6,1.2-3.2,0.6-4.9
			l-0.2-0.8c-1.1-2.4-3-4-5.6-4.6c-2.1-0.3-4.2-0.4-6.1-0.3c-2.6,0.2-4.9,0.7-7.1,2c-0.7,0.3-1.3,0.7-1.9,1.1
			c-0.2,0.1-0.3,0.3-0.2,0.5c-0.1,0.2,0.3,0.4,0.4,0.4c0.4,0,0.9,0.1,1.2,0c0.9-0.2,1.8-0.3,2.7-0.5c0.2,0.1,0.1,0.5,0.1,0.8
			c0,1.1-0.3,2.4-0.3,3.6c0,1.6-0.5,7.5-0.5,8.6c-0.1,1.3-0.3,2.7-0.3,3.9c-0.1,2.6-1.3,15.6-1.4,17.8v1.2c-0.7,0.3-1.1,0.4-1.6,0.5
			c-0.5,0.1-0.5,0.4-0.3,0.7c0.5,0.6,1.2,1.1,2.1,1.1c1.8-0.1,3.5,0.1,5.3,0.1c0.3-0.1,0.7-0.1,0.9-0.2c0.1-0.1,0.2-0.5,0.3-0.6
			c0.1-0.2,0-0.4-0.2-0.4c-0.1-0.1-0.1-0.3-0.3-0.3c-0.8-0.2-1.1-0.7-1-1.4c0.1-1.3,0.1-2.4-0.1-3.7c-0.2-2.2,0.6-10.3,0.5-11.2
			c0.1-0.2,0.1-0.5,0.1-0.7c0.2-1.3,0.2-2.6,0.3-3.8c0-0.7,0-1.3,0.2-2c1.7-0.4,1.3,0.1,3-0.3c0.3,0.1,0.9,0,1.3,0.2
			c1.3,1.7,2.3,3.8,2.8,5.8c0.1,0.8,0.4,1.8,0.5,2.6c0.3,1.8,0.3,4.5,0.5,6.5c-0.1,3,0.9,6.7,2.3,8.4c0.4,0.6,2.9,3.3,6.3,2
			C337.1,226.7,337.2,225.9,336.9,225.2z M319.6,199.1c-0.1-0.6-0.1-1.1-0.1-1.8c0-0.5,0.1-1,0.1-1.5c0-0.8,0-1.6,0.1-2.6
			c0-1.4-0.1-5.9-0.5-6.5c0.1-0.3,0.3-0.3,0.6-0.5c1.8-0.4,3.8-0.2,5.7-0.1c0.3,0,0.6,0.1,0.9,0.3c0.9,0.9,1.5,1.8,1.6,3.2
			c0.1,1.1,0.1,2.4-0.1,3.5c-0.4,1.3-1.4,2.7-2.4,3.6C323.1,199.1,322,199.1,319.6,199.1z"/>
	</g>
	<g>
		<path d="M161.7,272.5c-0.2-1.2-0.4-2.4-0.6-3.6c-0.3-1.5-0.7-3-1.2-4.4c-0.5-1.4-1.2-2.8-2.2-4c-0.7-0.9-1.4-1.6-2.3-2.1
			c-0.8-0.5-1.7-0.8-2.6-0.9c-0.9-0.1-1.8,0-2.7,0.4c-0.9,0.3-1.7,0.9-2.5,1.7c-0.9,0.9-1.6,1.8-2.3,2.9c-0.7,1-1.3,2.1-2,3.2
			c-0.4,0.6-0.7,1.3-1,2c-0.3,0.7-0.6,1.5-1,2.4c0-0.4,0-0.6-0.1-0.9c0-0.2,0-0.4,0-0.5c0.1-4.3,0.2-8.6,0.3-12.9
			c0.1-4.3,0.2-4.4,0.2-8.8c0-1.5,0-2.9,0-4.4c0-1.4-0.1-2.9-0.1-4.3c-0.1-0.8-0.3-1.5-0.8-2c-0.5-0.5-1.1-0.8-1.9-1
			c-0.7-0.1-1.4,0-2,0.3c-0.7,0.3-1.2,0.8-1.5,1.5c-0.2,0.5-0.4,1-0.6,1.5c-0.2,0.5-0.3,1.1-0.3,1.6c-0.2,2.8-1.1,9.8-1.2,12.6
			c-0.2,6-0.3,12-0.4,17.9c-0.1,5.9,0.2,11.9,0.7,17.9c0.1,1.1,0.2,2.2,0.3,3.3c0.1,1.1,0.3,2.2,0.5,3.3c0.2,1,0.7,1.7,1.3,2.2
			c0.7,0.5,1.4,0.7,2.3,0.7c0.8-0.1,1.5-0.4,2.1-1c0.6-0.6,0.9-1.4,0.9-2.4c0.1-1.8,0.1-3.5,0.1-5.3c0-1.7,0-3.5,0.1-5.3
			c0.1-1.2,0.2-2.5,0.4-3.7c0.2-1.2,0.4-2.5,0.6-3.7c0.2,0,0.3,0,0.3,0c0.1,0.5,0.1,1,0.2,1.6c0.1,0.5,0.1,1,0.2,1.6
			c0.3,1.7,0.7,3.3,1.3,4.9c0.6,1.6,1.4,3,2.5,4.4c0.8,1,1.8,1.8,2.8,2.4c1,0.6,2.1,0.9,3.1,1c1.1,0.1,2.2-0.2,3.2-0.8
			c1.1-0.6,2.1-1.5,3-2.9c0.5-0.8,1-1.6,1.4-2.5c0.4-0.9,0.7-1.8,0.9-2.8c0.3-1.2,0.5-2.4,0.6-3.7c0.1-1.2,0.1-2.5,0-3.7
			C162,274.9,161.9,273.7,161.7,272.5z M153.6,283c-0.1,1.1-0.3,2.1-0.6,3.2c-0.5,1.9-1.5,2.3-3,1c-0.5-0.4-1-0.9-1.4-1.5
			c-0.4-0.5-0.8-1.1-1-1.7c-1.5-3.4-2.1-6.7-1.8-9.9c0.2-3.2,1.3-6.4,3-9.6c0.4-0.7,0.8-1,1.3-1c0.5,0,0.9,0.4,1.1,1.1
			c0.9,2.8,1.7,5.7,2.2,8.7c0.2,1,0.3,2,0.3,3.1c0,1.1,0.1,2.4,0.2,3.8C153.8,281.1,153.7,282,153.6,283z"/>
		<path d="M192.5,263.1c-0.3,0-0.7,0.1-1,0.3c-0.4,0.2-0.7,0.5-1,0.7c-0.2,0.2-0.4,0.5-0.5,0.8c-0.1,0.3-0.3,0.6-0.4,0.9
			c-1.3,2.4-2.5,4.7-3.8,7c-1.2,2.3-2.6,4.7-4,7c-0.5,0.8-1.1,1.6-1.8,2.3c-0.7,0.7-1.5,1.4-2.3,2.1c-0.9,0.7-1.7,1.1-2.3,1
			c-0.6-0.1-1.1-0.6-1.4-1.6c-0.4-1.6-0.8-3.2-1.1-4.8c-0.3-1.6-0.6-3.2-0.9-4.9c-0.1-0.5-0.1-0.9,0.1-1.1c0.2-0.3,0.6-0.5,1.1-0.8
			c1.5-0.8,2.9-1.7,4.1-2.8c1.2-1.1,2.3-2.3,3.1-3.6c0.9-1.3,1.5-2.6,2-4.1c0.5-1.4,0.7-2.8,0.7-4.2c0-1-0.2-1.8-0.5-2.7
			c-0.3-0.8-0.8-1.6-1.3-2.2c-0.5-0.6-1.2-1.1-1.9-1.5c-0.7-0.3-1.5-0.5-2.4-0.5c-1.6,0-3,0.4-4.2,1.1c-1.3,0.7-2.5,1.7-3.5,2.9
			c-1.5,1.7-2.7,3.5-3.6,5.4c-0.9,1.9-1.5,3.9-1.8,5.9c-0.4,2.4-0.7,4.7-0.7,7c0,2.3,0.1,4.6,0.3,6.9c0.2,1.7,0.4,3.3,0.8,4.9
			c0.3,1.6,1,3.1,2,4.4c0.7,1,1.5,1.7,2.5,2.2c1,0.5,2,0.8,3.1,0.8c1.1,0,2.3-0.2,3.5-0.7c1.2-0.5,2.3-1.2,3.4-2.1
			c1-0.9,1.9-1.8,2.8-2.8c0.9-1,1.6-2.1,2.3-3.2c1.2-2,2.4-4.1,3.5-6.2c1.1-2.1,2.2-4.2,3.2-6.3c0.5-1,1-2,1.4-3c0.4-1,0.9-2,1.3-3
			c0.2-0.4,0.3-0.8,0.1-1.2C193.2,263.3,192.9,263.1,192.5,263.1z M172.6,263.5c0.5-1.9,1.2-3.7,2.3-5.5c0.2-0.3,0.5-0.6,0.8-0.9
			c0.3-0.3,0.7-0.5,1-0.8c0.3,0.3,0.6,0.5,1,0.7c0.3,0.2,0.6,0.5,0.6,0.9c0.1,0.7,0.2,1.4,0.2,2.1c0,0.7-0.1,1.4-0.3,2.1
			c-0.5,1.5-1.3,2.8-2.3,4c-1,1.2-2.3,2.3-3.8,3.3C171.9,267.3,172.1,265.3,172.6,263.5z"/>
		<path d="M213.8,243.9c0.4,0,0.8-0.1,1.2-0.3c0.4-0.2,0.8-0.4,1.1-0.8c0.3-0.3,0.6-0.7,0.8-1.1c0.2-0.4,0.3-0.8,0.3-1.3
			c0-0.8-0.2-1.5-0.8-2c-0.5-0.5-1.2-0.8-2-0.8c-0.5,0-1,0.1-1.4,0.3c-0.5,0.2-0.8,0.4-1.2,0.8c-0.3,0.3-0.6,0.7-0.8,1.1
			c-0.2,0.4-0.3,0.9-0.3,1.3c0,0.9,0.2,1.5,0.8,2C212,243.6,212.8,243.9,213.8,243.9z"/>
		<path d="M220.7,274.6c-0.3-4.2-0.7-8.4-1.1-12.6c-0.1-1.6-0.3-3.2-0.6-4.8c-0.2-1.6-0.5-3.1-0.8-4.7c-0.2-1-0.7-1.8-1.4-2.3
			c-0.7-0.5-1.6-0.8-2.5-0.7c-0.9,0.1-1.6,0.4-2.3,1c-0.6,0.6-1,1.4-1.1,2.4c-0.1,0.6-0.1,1.2-0.2,1.8c0,0.6,0,1.2,0,1.8
			c0.1,1.9,0.3,3.8,0.5,5.6c0.2,1.9,0.3,3.8,0.4,5.6c0.2,4.4,0.4,8.8,0.6,13.1c0.2,4.3,0.3,6.6,0.4,11c0,1.1-0.1,2.3-0.3,3.4
			c-0.2,1.1-0.4,2.2-0.6,3.4c-0.1,0-0.3,0-0.6,0.1c-0.2-0.2-0.4-0.4-0.7-0.6c-0.3-0.2-0.5-0.4-0.6-0.6c-1.2-2-2.3-4-3.5-6.1
			c-1.2-2-2.3-4.1-3.4-6.1c-0.2-0.4-0.5-0.8-0.7-1.1c-0.2-0.3-0.6-0.4-1.2-0.3c-0.6,0.1-1,0.3-1.2,0.7c-0.2,0.4-0.3,0.8-0.3,1.3
			c0.1,0.5,0.2,1,0.3,1.4c0.8,1.7,1.5,3.5,2.3,5.2c0.8,1.7,1.6,3.5,2.4,5.2c0.9,1.8,2.1,3.4,3.5,4.7c0.8,0.7,1.6,1.3,2.5,1.6
			c0.9,0.3,1.8,0.4,2.6,0.3c0.9-0.1,1.7-0.4,2.5-0.9c0.8-0.5,1.5-1.2,2.1-2c0.5-0.6,0.9-1.3,1.2-2c0.3-0.7,0.7-1.4,0.9-2.2
			c0.7-2,1.1-4,1.3-6.1c0.2-2,0.3-4.1,0.1-6.2C221.4,281,221,278.8,220.7,274.6z"/>
		<path d="M274.2,278.8c-0.9-2.4-1.9-4.7-2.9-7.1c-0.8-1.8-1.6-3.7-2.3-5.5c-0.7-1.8-1.4-3.7-2-5.5c-0.2-0.6-0.3-1.2-0.3-1.8
			c0-0.6,0-1.3,0.1-1.9c0-0.3,0.2-0.6,0.4-1c0.2-0.4,0.5-0.6,0.8-0.6c0.3-0.1,0.6,0,1,0.3c0.4,0.2,0.7,0.5,0.9,0.7
			c0.2,0.2,0.4,0.5,0.5,0.8c0.1,0.3,0.3,0.6,0.5,0.9c0.2,0.2,0.4,0.5,0.7,0.7c0.3,0.2,0.5,0.4,0.8,0.4c0.3,0,0.6-0.1,0.9-0.3
			c0.3-0.2,0.6-0.4,0.8-0.6c0.2-0.2,0.3-0.3,0.4-0.6c0.1-0.2,0.1-0.5,0.2-0.7c0.1-0.8,0-1.6-0.3-2.4c-0.3-0.8-0.7-1.5-1.3-2.2
			c-0.6-0.7-1.3-1.2-2.1-1.6c-0.8-0.4-1.7-0.7-2.6-0.7c-1.1-0.1-2.1,0-3,0.3c-0.9,0.2-1.8,0.6-2.6,1.1c-0.8,0.5-1.4,1.2-2,1.9
			c-0.6,0.8-1,1.6-1.2,2.6c-0.4,1.5-0.6,2.9-0.5,4.4c0.1,1.5,0.4,2.9,0.9,4.4c0.4,1,0.7,2,1.1,3c0,0,0,0,0,0.1c-0.7,2.5-1.4,5-2,7.5
			c-0.6,2.5-1.3,4.9-2.1,7.4c-0.2,0.8-0.6,1.6-1,2.4c-0.5,0.8-0.9,1.6-1.3,2.3c-0.1,0-0.3-0.1-0.5-0.1c-0.6-1.6-1-3.3-1.3-5
			c-0.3-1.7-0.5-3.4-0.6-5.1c-0.1-2.4-0.2-4.9-0.2-7.3c0-2.4-0.1-4.8-0.2-7.3c-0.1-2-0.7-3.8-1.6-5.5c-0.3-0.5-0.7-0.9-1.1-1.2
			c-0.5-0.3-1-0.5-1.5-0.5c-0.6-0.1-1.1-0.1-1.7,0c-0.6,0.1-1.1,0.3-1.7,0.6c-1,0.6-1.7,1.4-2,2.3c-0.3,1-0.2,2,0.2,3.1
			c0.1,0.3,0.2,0.7,0.2,1c0,0.4,0,0.7-0.2,1c-0.6,1.6-1.2,3.1-1.8,4.6c-0.6,1.5-1.3,3-1.9,4.6c-0.6,1.3-1.2,2.6-1.8,3.9
			c-0.6,1.3-1.3,2.5-1.9,3.8c-0.1,0.3-0.3,0.5-0.5,0.7c-0.2,0.2-0.4,0.4-0.6,0.7c-0.1,0-0.2,0-0.3,0c-0.1,0-0.2,0-0.3,0
			c-0.2-1.4-0.4-2.9-0.6-4.3c-0.2-1.4-0.3-2.9-0.3-4.3c0-2,0-4,0.1-6c0.1-2,0.2-4,0.3-6c0.1-1.1-0.2-2-0.8-2.8
			c-0.6-0.8-1.5-1.2-2.6-1.4c-1.1-0.2-2.1,0-3,0.6c-0.9,0.5-1.6,1.3-2,2.4c-0.1,0.4-0.3,0.8-0.4,1.2c-0.1,0.4-0.2,0.8-0.2,1.2
			c-0.1,2.4-0.1,4.8-0.2,7.2c-0.1,2.4-0.1,4.8,0,7.1c0.1,1.2,0.2,2.4,0.5,3.6c0.3,1.2,0.6,2.3,1.1,3.5c0.5,1.4,1.4,2.4,2.6,3
			c1.2,0.6,2.6,1,4.2,1c0.7,0,1.4-0.1,2-0.3c0.6-0.2,1.1-0.5,1.6-0.9c0.5-0.4,0.9-0.8,1.3-1.3c0.4-0.5,0.7-1,1-1.6
			c0.8-1.4,1.5-2.8,2.1-4.2c0.6-1.4,1.3-2.8,2-4.2c0.1-0.3,0.3-0.6,0.4-0.9c0.1-0.3,0.2-0.6,0.3-0.8c0.3,2.1,0.5,4.2,0.8,6.3
			c0.2,2.1,0.6,4.2,1,6.3c0.2,1.2,0.5,2.3,0.9,3.5c0.4,1.1,0.9,2.2,1.5,3.2c0.5,0.9,1.2,1.5,2.1,2c0.8,0.5,1.7,0.7,2.6,0.7
			c0.9,0,1.8-0.1,2.8-0.5c0.9-0.4,1.8-1,2.5-1.8c0.5-0.6,1-1.2,1.5-1.9c0.5-0.7,0.8-1.4,1-2.1c0.7-2.3,1.3-4.5,1.9-6.8
			c0.6-2.3,1.2-4.5,1.7-6.8c0.2-0.7,0.3-1.4,0.4-2.1c0.4,1.1,0.9,2.2,1.3,3.4c0.8,2.2,1.6,4.3,2.4,6.5c0.8,2.1,1.6,4.3,2.3,6.5
			c0.3,1,0.5,2,0.4,3.1c-0.1,1.1-0.4,2.1-1,3.1c-0.8-0.3-1.3-0.7-1.7-1.1c-0.3-0.4-0.7-1.1-0.9-1.9c-0.1-0.4-0.3-0.8-0.4-1.2
			c-0.1-0.4-0.3-0.8-0.5-1.1c-0.1-0.2-0.4-0.3-0.7-0.5c-0.3-0.1-0.6-0.2-0.8-0.1c-0.2,0.1-0.4,0.2-0.7,0.5c-0.2,0.3-0.4,0.5-0.3,0.7
			c0.3,1.5,0.7,3,1.3,4.3c0.6,1.3,1.7,2.5,3.1,3.5c1.4,0.9,2.8,1,4.4,0.3c1.2-0.5,2.1-1.2,2.7-2c0.6-0.8,1.2-1.8,1.5-2.8
			c0.5-1.3,0.7-2.7,0.8-4c0-1.3-0.1-2.7-0.3-4.1C275.8,283.6,275.1,281.2,274.2,278.8z"/>
		<path d="M296.9,265.4c-0.2-0.4-0.6-0.6-1.1-0.8c-0.6-0.1-1,0-1.4,0.3c-0.3,0.3-0.6,0.7-0.8,1.3c-0.1,0.2-0.1,0.4-0.1,0.5
			c0,0.2-0.1,0.3-0.1,0.5c-0.6,2.7-1.2,5.4-1.9,8.1c-0.6,2.7-1.3,5.4-1.9,8.1c-0.1,0.5-0.3,0.9-0.5,1.4c-0.2,0.5-0.3,0.9-0.5,1.4
			c-0.1,0-0.2,0-0.4,0c-0.6-3.2-1-6.5-1.3-9.7c-0.3-3.3-0.5-6.5-0.6-9.8c-0.1-3.3-0.2-6.6-0.2-9.9c0-3.3,0-6.7,0.1-10
			c0.7,0,1.3,0,1.9-0.1c0.6,0,1.1,0,1.7-0.1c1.5-0.1,2.2-0.6,2.2-1.7c0-0.5-0.2-0.9-0.6-1.2c-0.4-0.3-0.9-0.5-1.6-0.4
			c-0.5,0-1.1,0-1.7,0c-0.6,0-1.2,0-1.9,0.1c0-1,0.1-2,0.1-3c0.1-0.9,0.1-1.9,0-2.8c-0.1-1.1-0.4-1.9-1-2.5c-0.6-0.6-1.4-0.9-2.3-1
			c-0.9,0-1.8,0.3-2.5,0.9c-0.7,0.6-1.2,1.4-1.4,2.5c-0.3,1.6-0.5,3.1-0.6,4.7c0,0.6-0.2,1-0.4,1.2c-0.2,0.2-0.6,0.3-1.2,0.3
			c-0.4,0-0.7,0-1.1,0.1c-0.4,0.1-0.8,0.2-1.1,0.3c-0.3,0.2-0.7,0.4-1,0.7c-0.3,0.3-0.5,0.6-0.6,0.9c-0.1,0.2,0,0.4,0,0.6
			c0.1,0.2,0.2,0.3,0.3,0.4c0.2,0.1,0.3,0.2,0.6,0.3c0.2,0.1,0.4,0.1,0.6,0.1c0.6,0.1,1.2,0.1,1.7,0.1c0.6,0,1.2,0,1.9,0.1
			c0,0.3,0,0.6,0,0.9c0,0.3,0,0.6,0,0.9c0.1,4.4,0.1,8.7,0.1,13c0,4.3,0.1,8.7,0.2,13c0.1,2.4,0.3,4.8,0.7,7.1
			c0.4,2.3,1.1,4.6,2.1,6.7c0.3,0.6,0.6,1.2,1,1.7c0.4,0.6,0.8,1.1,1.2,1.5c0.4,0.4,0.9,0.8,1.4,1c0.5,0.2,1,0.3,1.6,0.2
			c0.5,0,1.1-0.2,1.6-0.4c0.5-0.3,1-0.6,1.4-1.1c0.5-0.6,1-1.2,1.5-1.9c0.4-0.7,0.8-1.4,1-2.2c0.5-1.4,0.9-2.9,1.3-4.4
			c0.4-1.5,0.7-2.9,1.1-4.4c0.4-2,0.8-4,1.2-6.1c0.4-2,0.8-4,1.1-6.1C297.2,266.3,297.1,265.8,296.9,265.4z"/>
	</g>
	<g>
		<path d="M178.9,351c-0.3,0.1-0.5,0.1-0.7,0.4c-0.5,0.3-0.7,0.4-1.1,0.4c-0.3,0.1-0.6-0.3-0.9-0.5c-0.3-0.7-0.5-1.3-0.7-2.2
			c-0.3-1.4-0.5-3-0.3-4.5c0.1-0.4,0.1-0.7,0.1-1.1c0-1.5-0.3-4.8-0.6-6.1c-0.5-1.5-0.9-2.9-1.4-4.3c-0.5-0.9-0.9-1.6-1.3-2.1
			c-0.9-1.2-1.8-2.2-2.8-3.2c-0.2-0.3-0.3-0.5-0.6-0.7c4-1.3,5.5-4.5,6.3-5.4c0.9-1.6,1.2-3.2,0.6-4.9l-0.2-0.8
			c-1.1-2.4-3-4-5.6-4.6c-2.1-0.3-4.2-0.4-6.1-0.3c-2.6,0.2-4.9,0.7-7.1,2c-0.7,0.3-1.3,0.7-1.9,1.1c-0.2,0.1-0.3,0.3-0.2,0.5
			c-0.1,0.2,0.3,0.4,0.4,0.4c0.4,0,0.9,0.1,1.2,0c0.9-0.2,1.8-0.3,2.7-0.5c0.2,0.1,0.1,0.5,0.1,0.8c0,1.1-0.3,2.4-0.3,3.6
			c0,1.6-0.5,7.5-0.5,8.6c-0.1,1.3-0.3,2.7-0.3,3.9c-0.1,2.6-1.3,15.6-1.4,17.8v1.2c-0.7,0.3-1.1,0.4-1.6,0.5
			c-0.5,0.1-0.5,0.4-0.3,0.7c0.5,0.6,1.2,1.1,2.1,1.1c1.8-0.1,3.5,0.1,5.3,0.1c0.3-0.1,0.7-0.1,0.9-0.2c0.1-0.1,0.2-0.5,0.3-0.6
			c0.1-0.2,0-0.4-0.2-0.4c-0.1-0.1-0.1-0.3-0.3-0.3c-0.8-0.2-1.1-0.7-1-1.4c0.1-1.3,0.1-2.4-0.1-3.7c-0.2-2.2,0.6-10.3,0.5-11.2
			c0.1-0.2,0.1-0.5,0.1-0.7c0.2-1.3,0.2-2.6,0.3-3.8c0-0.7,0-1.3,0.2-2c1.7-0.4,1.3,0.1,3-0.3c0.3,0.1,0.9,0,1.3,0.2
			c1.3,1.7,2.3,3.8,2.8,5.8c0.1,0.8,0.4,1.8,0.5,2.6c0.3,1.8,0.3,4.5,0.5,6.5c-0.1,3,0.9,6.7,2.3,8.4c0.4,0.6,2.9,3.3,6.3,2
			c0.7-0.3,0.8-1.1,0.5-1.8C179.6,351.9,179.2,351.4,178.9,351z M162.7,326.2c-0.1-0.6-0.1-1.1-0.1-1.8c0-0.5,0.1-1,0.1-1.5
			c0-0.8,0-1.6,0.1-2.6c0-1.4-0.1-5.9-0.5-6.5c0.1-0.3,0.3-0.3,0.6-0.5c1.8-0.4,3.8-0.2,5.7-0.1c0.3,0,0.6,0.1,0.9,0.3
			c0.9,0.9,1.5,1.8,1.6,3.2c0.1,1.1,0.1,2.4-0.1,3.5c-0.4,1.3-1.3,2.7-2.4,3.6C166.2,326.2,165.1,326.2,162.7,326.2z"/>
		<path d="M192.4,312.9c-0.4-0.1-0.7-0.3-1-0.3c-1.1-0.1-2.2-0.3-3.1-0.3c-1.3,0-2.6,0.2-3.8,0.3c-0.6,0-1,0.3-1.5,0.7
			c-0.2,0.2-0.1,0.7,0.1,0.9c0.5,0.1,0.9,0.3,1.2,0.2h1.8v2.1c-0.1,0.7-0.2,1.4-0.2,2.2c-0.2,2.4-0.3,4.9-0.3,7.2
			c0,0.9-0.1,1.8-0.1,2.6c-0.1,2.2-0.1,4.4-0.1,6.5c-0.1,2.7,0.1,5.4,0.1,8.1c0,1.6-0.1,3.3,0,4.9c0,0.9-0.1,1.6-0.4,2.4
			c-0.1,0.4-0.3,0.8-0.7,0.8l-1.3,0.4c-0.1,0.1-0.1,0.4,0,0.5c0.2,0.5,0.8,0.7,1.4,0.7c0.8-0.1,2.8,0.1,3.6,0.1
			c0.6-0.1,1.2,0,1.8-0.2c0.3-0.1,0.6-0.1,0.9-0.3c0.1-0.2,0.3-0.3,0.2-0.6l-0.5-0.3c-0.4-0.1-0.8,0.1-1.3-0.1
			c0.1-0.1,0.2-0.4,0.1-0.5c0.1-0.8,0.3-1.5,0.3-2.2c0.1-0.7,0-1.4-0.1-2.1l-0.1-5.4c0.1-1.1,0.1-2.2,0.1-3.3c0.1-1.4,0-3,0-4.4
			c0.1-1.8,0.2-3.6,0.3-5.4c0.1-0.9,0.1-2,0.1-3c0-1.3,0-2.8,0.2-4.2c0.1-0.5,0.1-0.9,0.1-1.3c0.1-0.5,0-0.9,0.1-1.3
			c0.1-0.6,0.1-1.1,0.1-1.8c-0.1-0.3-0.1-0.8,0-1.3c-0.1-0.9,0.1-0.9,1.1-1c0.2,0,0.4,0.1,0.6,0.1c0.1,0,0.3-0.2,0.5-0.2
			c0.4-0.1,0.6-0.8,0.3-1.1C192.8,313.1,192.5,312.9,192.4,312.9z"/>
		<path d="M220.4,332.5c-0.5-0.1-5.9-0.5-7.6-0.5c-0.3,0-0.6,0.1-0.8,0.2c-0.3,0.2-0.6,0.4-0.7,0.8c0,0.3,0.4,0.6,0.8,0.9
			c0.4,0.1,0.7,0.2,1.2,0.2c0.5,0.1,1.1,0.1,1.7,0.1c0.3,0,0.5,0.1,0.8,0.1c0.2,0.7,0.1,1.5,0,2.4c-0.3,1.7-2.4,9.9-4.8,12.1
			c-0.8,0.7-2.4,1.3-3.8,0.9c-0.2-0.2-0.5-0.2-0.7-0.3c-1.2-0.4-2.1-1.2-2.7-2.3c-0.5-0.8-0.8-1.7-1.1-2.7
			c-1.1-3.4-1.5-6.7-1.4-10.3c0.1-1.4,0.2-2.8,0.2-4.2c0-1.8,0.2-3.8,0.5-5.7c0.3-2,1.8-10.3,8.6-10.1c0.2,0,0.3-0.1,0.6-0.1
			c0.9,0.1,1.6,0.3,2.4,0.9c0.5,0.4,0.7,1,0.6,1.7c0,0.1-0.1,0.5,0,0.6c0.1,1.2,1.3,2,2.4,1.6c0.2-0.2,0.5-0.4,0.5-0.5
			c0.2-0.5,0.4-0.9,0.4-1.2c0.1-1.1,0.1-2.2,0.3-3.2c0-0.2-0.1-0.6-0.3-0.8c-0.5-0.5-1.1-0.9-1.7-0.9c-0.7,0-0.9,0.7-1.2,1.1
			c0,0.1-0.1,0.1-0.3,0.3l-1.3-0.9c-0.6-0.3-1.3-0.6-2.1-0.7c-12.3-1.4-14.4,11.7-14.9,14.5c-0.3,2.3-0.7,4.7-0.8,7
			c-0.1,1-0.1,2-0.1,3c0.1,2.6,0.5,5.1,1.3,7.4c0.7,2,1.4,3.8,2.8,5.5c1.3,1.6,2.8,2.8,4.5,3.9c3.2,1.8,8.2-0.7,8.9-1.9
			c0.3-0.5,0.5-0.8,0.9-1.3c0.9-1.2,1.7-2.6,2.2-4c0.3-0.8,1.4-4.9,1.6-6.1c0.1-0.6,0.3-3.4,0.5-4.1c0.3-0.7,0.2-1.3,0.3-2
			c-0.3-0.2,1.1,0.5,2.6,0c0.1-0.1,0.1-0.2,0.1-0.4C221.2,333.1,221.2,332.7,220.4,332.5z"/>
		<path d="M245.4,312.1c-0.9-0.2-1.8-0.2-2.5-0.2c-0.7,0-1.4,0.2-2,0.3c-0.2,0.1-0.3,0.5-0.1,0.5c0.5,0.5,1.1,0.9,1.7,1.3v1.6
			c-0.1,1.4-0.1,3-0.2,4.4c-0.1,1.4-0.5,4.9-0.6,6.3c-0.1,0.8-0.4,1.1-1.4,1.2h-0.3c-3,0.1-3.4,0.1-6.4,0.4h-0.5
			c-0.9,0-2,0.1-2.8,0.1c-0.3,0-0.6-0.1-0.7-0.1c-0.1-0.2-0.1-0.3-0.1-0.3c0.1-1.6,0.3-5.2,0.3-6.7c-0.1-0.7,0-1.3,0-2
			c0-1.4,0.4-2.9,0.3-4.4c0.4,0,1.1-0.2,1.6-0.3c0.3-0.1,1.5-0.7,1.6-1.1c0.1-0.2-0.1-0.5-0.7-0.7c-0.7-0.2-1.4-0.5-2.2-0.3
			c-1,0.4-2.1,0.4-3.2,0.3c-0.3,0-0.7-0.1-1.2-0.1c-0.3,0-0.6,0.1-0.9,0.1c-0.5,0.1-1.1,0.5-1.1,0.7c0.1,0.4,0.4,0.5,0.7,0.7
			c0.7,0.3,0.9,0.8,0.9,1.5c0,0.3,0.1,0.5,0,0.7c-0.1,2.2-0.2,4.3-0.4,6.5c-0.5,5.5-0.7,9-0.7,10.5c0.1,3.2-0.3,6.3-0.2,9.4
			c0.1,1.6,0.1,3.4,0.1,5.1c0,1.1,0.1,2.5,0.6,3.6c0.1,0.2,0,0.4,0,0.7c-0.5,0.2-1,0.3-1.4,0.4c-0.4,0.1-0.7,0.4-0.7,0.7
			c0.2,0.4,0.6,0.4,0.9,0.4c1.8,0.1,3.4,0.3,5.3,0.3c0.8,0,1.3-0.5,1.7-1.1c-0.5-0.7-1.6-0.5-2.4-1.1c0.1-0.3,0.1-0.7,0.3-1.1
			c0.3-1,0.4-2.2,0.3-3.4l0.1-5c0.1-1.3,0.1-2.5,0.1-3.8l0.2-3.8c0-1.2,0.2-2.4,0.3-3.5c0.1-0.9-0.1,0.1,0-0.7
			c0-0.1,0.1-0.2,0.1-0.3c0-0.1,0.1-0.1,0.2-0.1c1.8-0.2,3.6-0.3,5.5-0.4h4.6c0.4,0,0.7,0.1,1.2,0.1c0.3,0.1,0.4,0.3,0.5,0.5
			c0,0.1,0,0.4,0.1,0.6c-0.2,1.7-0.1,1.3-0.1,2.9c-0.1,0.8-0.1,1.5-0.1,2.2l-0.2,6.9c0.1,3-0.3,5.7,0.4,8.6c0,0.1-0.1,0.2-0.1,0.3
			c-0.1,0.1-0.3,0.1-0.4,0.1c-0.3,0.1-0.6,0.3-0.5,0.6c0.1,0.3,0.3,0.4,0.5,0.5c0.1,0.1,0.2,0.1,0.3,0.1c1.5,0.3,3,0.2,4.5,0.1
			c0.5-0.1,1.1-0.3,1.7-0.4c0.2-0.1,0.3-0.3,0.4-0.3c0.1-0.2,0.1-0.6-0.1-0.6c-0.3,0-0.5-0.1-0.8-0.2c-0.7-0.1-1.3-0.1-2-0.1
			c0-0.5,0.1-0.9,0.1-1.4c0-3.4,0.4-6.5,0.3-9.9c0-0.5,0.1-1.1,0.1-1.9c0.1-2,0.3-4,0.5-6.1c0.1-0.9-0.2,0.3-0.1-0.5
			c0.3-1.9,0.6-3.7,0.6-5.5c0-0.6,0.3-3.3,0.3-3.9c0.1-2.1,0.4-4.3,0.3-6.5c0-0.5-0.1-1.1,0.3-1.5l1.5-0.5c0.2-0.1,0.3-0.3,0.5-0.5
			c-0.3-0.3-0.5-0.5-0.8-0.7C247.3,312.3,246.3,312.1,245.4,312.1z"/>
		<path d="M271.6,316.4c0.4,0.3,0.8,0.3,1.1-0.1c0.2-0.3,0.4-0.7,0.5-0.9c0-0.5,0.1-1.2,0.2-1.9c0-0.5-0.3-0.9-0.9-0.9l-0.5-0.2
			c-0.4-0.1-0.8-0.2-1.2-0.2c-0.3,0-0.7-0.1-1.1-0.1c-1.8,0.1-3.5,0.2-5.3,0.3c-0.1,0-0.3,0.1-0.4,0.1c-1.1,0.1-2.2,0.1-3.2,0.3
			c-0.6,0.1-1.2,0.1-1.8,0.3c-1.4,0.3-2.8,0.5-4,0.7c-0.6,0.1-1.1,0.2-1.7,0.4c-0.3,0.1-0.6,0.5-0.7,0.9c0.1,0.7,0,1.6,0.1,2.4
			c0,0.3,0.3,0.4,0.5,0.5c0.6,0.1,1.1-0.1,1.1-0.7c0.1-0.5,0.1-1.1,0.4-1.6c0.7-0.3,1.6-0.4,2.5-0.4c0.7,0,1.5-0.1,2.3,0.1
			c0.1,0.2,0.1,0.5,0.1,0.7c-0.1,1.4-0.3,2.8-0.2,4.1c0,1.4-0.3,2.8,0,4.1c0,0.1,0,0.3-0.1,0.5c0,0.7-0.1,1.6-0.1,2.4v1.3
			c-0.1,1.4-0.1,2.9-0.2,4.5c-0.1,1.3-0.3,2.5-0.3,3.8c-0.1,1.1-0.2,2.2-0.1,3.2c0,1.2,0.1,2.4,0.1,3.6c0.1,0.8,0.1,1.6,0.1,2.4
			c-0.1,0.9-0.1,2,0,2.9c0.2,0.5,0.1,0.9,0.1,1.4c0,0.3-0.3,0.5-0.6,0.6c-0.3,0-0.5,0.2-0.7,0.3c-0.2,0.1-0.6,0.1-0.9,0.1
			c-0.4,0.1-0.5,0.5-0.3,0.8c0.3,0.5,0.8,0.7,1.3,0.8c0.9,0.1,1.8,0.3,2.6,0.2c0.9,0,1.8-0.1,2.7,0.1c0.9,0.1,1.6-0.1,2-0.7
			c0.2-0.2,0.3-0.4,0.3-0.6c-0.1-0.3-0.3-0.4-0.6-0.5c-0.4,0-0.7,0.1-1,0.1c-0.4,0-0.5-0.2-0.6-0.5c0.2-1.3,0.3-2.6,0.1-4
			c0-0.1,0.1-0.3,0.1-0.5c0.1-0.7,0.1-1.5,0.1-2.2c0.1-0.7-0.1-1.4,0.1-2c0.1-1.3,0.1-2.6,0.3-3.8l0.3-3.7l0.2-3.4
			c0.1-0.2,0.1-0.5,0.1-0.7c0-0.6,0-1.2,0.1-1.8c0.1-1.3,0.2-2.6,0.3-4c0.2-2.4,0.3-4.7,0.3-7.2c-0.1-0.8-0.1-1.8-0.5-2.6v-0.3
			c0.1-0.1,0.2-0.2,0.3-0.2c1.6-0.2,3.2-0.3,4.7-0.4c0.3-0.1,0.5,0,0.7,0c0.4,1.2,0.5,1.3,1.5,2
			C271.4,316.4,271.5,316.4,271.6,316.4z"/>
		<path d="M275.6,350.1c-0.5-1.1-0.8-1.5-1.9-1.5c-0.5,0-1,0-1.4,0.2c-1.2,0.2-1.6,1.5-1,2.4c0.5,1.1,1.4,1.4,2.7,1.7
			c0.2-0.2,0.7-0.3,0.9-0.6C275.6,351.9,275.8,350.8,275.6,350.1z"/>
	</g>
	<path class="st0" d="M108.3,127.3c2,4.5,2.3,9.4,2.4,14.3c0.1,5.7,1.6,11,4,16.1c2.3,4.8,3,9.9,1.2,15c-0.6,1.7-1.8,3.1-3.7,3.3
		c-5.6,0.5-10.9-0.2-15.8-3.3c-2.8-1.7-5-3.9-7.1-6.3c-1.7-2-3-4.4-4.8-6.3c-1.3-1.4-2.7-2.6-3.5-4.4c-2-4-3.2-8.3-3.7-12.8
		c-0.3-3.2-0.5-6.3,0.4-9.4c0.9-2.9,1.8-5.7,3.5-8.3c2.5-3.9,4-8.4,5.8-12.6c0.9-2,0.9-4.3,0-6.4c-0.8-1.8-1.4-3.6-2.1-5.4
		c-0.1-0.3-0.3-0.7,0-0.9c0.4-0.3,0.6,0.2,0.8,0.5c0.5,0.7,0.7,1.5,1,2.2c1.4,3.1,3,6.1,5.4,8.5c2.5,2.4,5.5,4.2,8.2,6.4
		c2.3,2,4.9,3.8,6.3,6.6C107.2,125.2,107.8,126.2,108.3,127.3z M101.8,143.1c-2.9-1.7-6-3-8.6-5.1c-0.5-0.4-0.8-0.2-0.7,0.4
		c0.4,2.8,0.3,5.7,1.2,8.4c0.6,1.7,2.2,2.4,3.7,3.3c2.9,1.7,6.1,2.4,9.2,3.6c1.5,0.6,3.2,0.9,4.6,1.8c0.2,0.1,0.5,0.3,0.8,0.1
		c0.3-0.2,0-0.5-0.1-0.7c-0.2-0.6-0.5-1.2-0.8-1.8C108.5,149.3,105.9,145.5,101.8,143.1z M85.6,159.3c0.4,0.4,0.8,0.7,1-0.2
		c0.8-2.9,2.4-5.3,3.6-8c1.1-2.3,1.7-4.6,1.2-7.2c-0.3-1.4-0.4-2.9-0.5-4.4c-0.1-0.8-0.3-1-0.9-0.4c-1.9,1.8-3.8,3.7-5.9,5.4
		c-1.4,1.2-2.2,2.8-3.3,4.1c-0.5,0.5-0.5,1.2-0.3,1.8c0.6,1.7,1.2,3.4,2.1,5.1C83.6,156.8,84.4,158.2,85.6,159.3z M97.5,117
		c-2.2-1.7-4.5-3.3-6.6-5.1c-0.2-0.1-0.3-0.4-0.6-0.3c-0.3,0.2-0.1,0.5-0.1,0.7c0.8,2.4,1,4.9,1.4,7.4c0.2,1.1,1.2,1.9,2.1,2.7
		c2.3,2.1,5,3.7,7.6,5.4c2.2,1.3,4.4,2.7,6,4.8c0.1,0.2,0.3,0.4,0.6,0.3c0.4-0.2,0.2-0.6,0.2-0.8c-0.5-2.7-1.5-5.2-2.9-7.3
		C103.1,121.3,100.3,119.1,97.5,117z M99.3,130.3c-2.2-1.2-4.3-2.4-6.4-3.7c-0.8-0.5-1.1-0.3-1,0.6c0.1,1.4,0.2,2.7,0.2,4.1
		c0,0.8,0.6,1.3,1,1.9c1.4,1.8,3.1,3.3,5.1,4.5c2.6,1.5,5.6,2.5,8,4.5c0.7,0.6,1.4,1.3,2.1,2c0.2,0.2,0.4,0.5,0.8,0.5
		c0.1,0,0-0.5,0.1-0.8c0.2-2.6-1.2-4.7-1.9-6.4C105,133.9,102.3,131.9,99.3,130.3z M105,163.5c3.1,0.9,6.3,1.5,9.3,2.9
		c0.9,0.4,1.1,0.1,1-0.8c-0.2-2.7-1.9-4.3-3.8-5.8c-2.1-1.7-4.7-2.6-7.2-3.6c-2.5-1-5.2-1.8-7.6-3c-0.3-0.1-0.6-0.4-0.9-0.2
		c-0.3,0.2-0.1,0.6,0.1,0.9c0.9,1.9,1.8,3.8,2.4,5.1C100,161.9,102.4,162.8,105,163.5z M96.1,170.8c0.5,0.3,0.9,0.6,0.9-0.4
		c0-2.8,0.7-5.6,0.7-8.5c0-0.6-0.1-1.2-0.4-1.7c-1.4-2-2.3-4.3-3.3-6.5c-0.4-0.8-0.5-1-1.1-0.2c-2,2.8-2.8,6-3.7,9.3
		c-0.2,0.8,0.4,1.3,0.7,1.9C91.7,167.1,93.6,169.3,96.1,170.8z M87.6,129.3c-1.9,1.9-4,3.5-6.2,5c-3,2.1-3.2,4.9-2.7,7.9
		c0.1,0.6,0.1,1.3,0.2,1.9c0,0.2,0.2,0.5,0.3,0.5c0.3,0.1,0.4-0.2,0.5-0.4c0.8-0.9,1.5-1.8,2.3-2.7c1.5-1.8,3.4-3.2,5.1-4.8
		c2.6-2.4,3.7-5.3,2.9-8.8c-0.1-0.3,0.1-0.9-0.5-0.6C88.9,128.2,88.2,128.7,87.6,129.3z M87.1,125c2.1-2.2,3.1-4.8,2.5-7.9
		c-0.2-1.2-0.2-2.5-0.6-3.6c0-0.2-0.1-0.4-0.2-0.4c-0.3-0.1-0.3,0.2-0.4,0.4c-1,1.7-1.7,3.6-2.5,5.4c-1.5,3.6-3.4,7.1-5.1,10.6
		c-0.1,0.3-0.5,0.6-0.2,0.9c0.3,0.3,0.5-0.3,0.7-0.3C83.5,128.5,85.4,126.9,87.1,125z M100.9,166.7c-0.8,2.1-0.6,4.2,0.1,6.3
		c0.2,0.5,0.6,0.7,1,0.8c2.8,0.8,5.6,1,8.4,0.8c0.4,0,0.9,0,1-0.5c0.1-0.4-0.4-0.5-0.7-0.7c-3.3-1.9-6.2-4.2-8.9-6.8
		c-0.5-0.5-0.5-0.5-0.8-0.3C101,166.3,100.9,166.5,100.9,166.7z M110.1,167.5c-1.8-0.5-3.6-0.8-5.5-1.3c-0.2,0-0.5-0.2-0.6,0
		c-0.2,0.2,0,0.4,0.2,0.6c2.6,2.1,5.1,4.3,8.1,5.8c0.8,0.4,1.3,0.3,1.8-0.5c0.6-0.9,0.7-1.5,0.2-2.2
		C113.1,169,111.8,168,110.1,167.5z"/>
	<path class="st0" d="M313.3,169.1c0.5,1.8,1.5,3.2,3.4,3.6c5.6,1,11,0.6,16.1-2.1c2.9-1.5,5.4-3.5,7.7-5.8c1.9-1.9,3.4-4.2,5.3-6
		c1.4-1.3,2.9-2.5,3.9-4.1c2.4-3.9,3.9-8.1,4.7-12.6c0.6-3.1,1-6.3,0.3-9.5c-0.7-3-1.4-5.8-2.9-8.6c-2.2-4.1-3.3-8.7-4.9-13.1
		c-0.7-2.1-0.6-4.3,0.5-6.4c0.9-1.7,1.7-3.5,2.5-5.2c0.1-0.3,0.3-0.7,0-0.9c-0.4-0.3-0.6,0.1-0.9,0.4c-0.5,0.6-0.8,1.4-1.2,2.2
		c-1.6,3-3.4,5.9-6.1,8.1c-2.7,2.3-5.9,3.8-8.7,5.8c-2.5,1.8-5.2,3.4-6.9,6.1c-0.6,1-1.3,2-1.9,3c-2.3,4.4-3,9.3-3.5,14.1
		c-0.5,5.8-2.5,10.9-5.3,15.8C312.9,158.8,311.9,163.8,313.3,169.1z M340,163.2c-2,2.2-4.1,4.2-6.7,5.6c-0.6,0.3-0.9,0.5-0.8-0.4
		c0.2-2.9-0.3-5.7,0-8.6c0.1-0.6,0.2-1.2,0.5-1.7c1.5-1.9,2.6-4.1,3.8-6.2c0.4-0.8,0.6-0.9,1.1-0.1c1.8,2.9,2.3,6.3,3,9.6
		C341.1,162.2,340.4,162.7,340,163.2z M350.8,133.3c2.8,2.3,2.8,5.1,2.1,8.2c-0.1,0.6-0.2,1.3-0.4,1.9c-0.1,0.2-0.2,0.5-0.4,0.5
		c-0.3,0.1-0.3-0.2-0.5-0.4c-0.7-1-1.4-1.9-2.1-2.9c-1.4-1.9-3.2-3.4-4.7-5.2c-2.4-2.6-3.3-5.6-2.2-9c0.1-0.3,0-0.9,0.5-0.5
		c0.7,0.7,1.3,1.3,1.8,2C346.7,129.8,348.8,131.6,350.8,133.3z M324.3,128.9c0.7-2.7,1.9-5.1,3.5-7.1c2.2-3.2,5.2-5.1,8.2-7.1
		c2.4-1.5,4.8-3,7-4.6c0.2-0.1,0.3-0.4,0.6-0.2c0.3,0.2,0.1,0.5,0,0.7c-1,2.4-1.3,4.9-2,7.3c-0.3,1.1-1.4,1.8-2.3,2.5
		c-2.5,2-5.3,3.4-8,4.8c-2.3,1.2-4.6,2.4-6.4,4.3c-0.2,0.2-0.3,0.4-0.6,0.2C324,129.5,324.2,129.1,324.3,128.9z M318.7,151.6
		c0.3-0.6,0.6-1.1,0.9-1.7c2.9-3.6,5.8-7.3,10.1-9.4c3-1.5,6.2-2.5,9-4.4c0.5-0.3,0.8-0.2,0.7,0.5c-0.6,2.8-0.8,5.7-1.9,8.3
		c-0.7,1.6-2.4,2.3-3.9,3c-3,1.5-6.3,2-9.5,2.9c-1.6,0.5-3.2,0.7-4.7,1.5c-0.2,0.1-0.5,0.3-0.8,0.1
		C318.3,152.1,318.6,151.8,318.7,151.6z M315.1,166.6c1.3-0.9,2.7-1.8,4.4-2.1c1.9-0.3,3.7-0.6,5.6-0.8c0.2,0,0.5-0.2,0.6,0.1
		c0.2,0.3-0.1,0.4-0.2,0.6c-2.7,2-5.4,4-8.6,5.2c-0.8,0.3-1.4,0.2-1.8-0.6C314.5,167.9,314.5,167.2,315.1,166.6z"/>
	<path class="st0" d="M297.5,348.2c1.8,0,3.3-0.6,4.5-1.6c1.5-1.2,2.5-2.7,3.1-4.4c1-2.9-0.7-5.5-4.6-7.1c-0.9-0.3-1.7-0.5-2.4-0.5
		c-1,0-1.8,0.3-2.5,0.9c-0.5,0.6-0.7,1.3-0.6,2c0.1,0.9,0.5,1.7,1.2,2.2c1.2,1,2.9,0.9,4.1,0.4l0.1,0c0.1,0,0.4-0.1,0.5-0.1
		c0,0,0.1,0.1,0.2,0.1l0.1,0.1c0.7,0.8,0.6,1.7,0.4,2.2c-0.4,1-1.4,1.9-2.6,2.1c-1.2,0.1-2.5-0.1-3.6-0.3c-3.1-0.8-4.9-2.7-5.5-5.9
		c-0.8-5,0.7-9.9,3.9-12.8c0.4-0.4,0.9-0.7,1.5-1c0,0,0.1-0.1,0.3-0.2c0,0,0.1,0,0.1-0.1c0,0.1,0,0.1,0,0.2c0.4,1.3,1,2.6,1.8,3.9
		c1.5,2.5,3.7,4.5,6.4,5.9c0.6,0.3,1.2,0.6,1.9,0.7c0.3,0.1,0.6,0.1,1,0.1c0.2,0,0.4,0.1,0.6,0.1c0.5,0.1,1.1,0.2,1.6,0.2
		c0.6,0,1.2-0.1,1.7-0.4c1.1-0.4,2.3-1.1,3.3-2.1c2.3-2.3,2.9-5.3,1.6-8c-0.3-0.7-0.7-1.3-1.3-1.9c-0.6-0.5-1.3-1-2.3-1.4
		c-2.9-1.3-5.6-2.1-8.2-2.4c-1.9-0.1-3.7-0.1-5.3,0.1c-0.1-0.5-0.3-1-0.4-1.5c-0.2-0.8-0.5-1.7-0.6-2.6c-0.2-2.5-0.3-5.1,0.6-7.3
		c0.8-1.9,1.4-3.6,2.4-5.2c1-1.7,2.3-2.9,4.4-4.1c1.1-0.7,2.2-1,3.3-1.5c0.3-0.1,0.5-0.2,0.8-0.3c0,0.2,0,0.3,0,0.5l0,0.3
		c-0.1,0.8-0.2,1.6-0.2,2.4c0,0.6-0.1,1.2,0,1.9c0.1,2.1,1,4.3,1.7,5.9c1.6,3.5,5.5,5.9,9.4,5.9c2.7,0,4.7-0.9,6.4-2.7
		c0.7-0.8,1.3-1.6,1.7-2.4c0.6-1.1,0.8-2.3,0.8-3.6c0-3-1.2-5.6-3.5-7.5c-1.4-1.3-3.1-2.4-5-3.3c-2-0.8-4.3-1.2-6.3-1.5
		c0.1-0.8,0.4-1.4,0.8-2.1c0.1-0.2,0.2-0.4,0.4-0.6c0.3-0.4,0.5-0.8,0.8-1.2c0.7-1.1,1.5-2.2,2.6-3.3c1.4-1.5,3-2.9,5.1-4.7
		c0.8-0.6,1.5-1.3,2.2-2c1-0.9,1.9-1.7,2.9-2.5c0.4-0.4,0.8-0.7,1.1-1.1c0.2-0.2,0.3-0.3,0.5-0.5c1.4-1.4,2.5-2.9,3.7-4.7
		c2.7-3.6,4.3-7.4,4.9-11.7c0.5-3.3,0.1-6.5-1.1-9.6c-0.6-1.6-1.5-3.2-2.3-4.6c-0.8-1.4-1.8-2.4-3.1-3.2c-2.9-1.7-6-2.5-9.4-2.4
		c-4.7,0.2-8.8,1.9-12.6,5.1c-0.5,0.5-0.9,0.9-1.2,1.4c-1.1,1.6-1.8,3.5-2,5.5c-0.2,2.7,0.6,5.8,2,8.4c1,1.9,2.5,3.6,4.3,4.5
		c1.9,1.1,4.2,1.5,6.1,1.7c1.4,0.2,2.7,0.2,3.9-0.1c3-0.8,5.6-3.9,6.1-7.1c0.4-2.1,0-4.1-0.9-5.8c-1.2-2.3-3-3.4-5.5-3.3
		c-1.3,0.1-2.7,0.3-3.7,1.4c-0.3,0.2-0.6,0.6-0.7,1.2l0,0.1c-0.1,0.3-0.2,0.8-0.1,1.2c0.1,1,0.5,1.7,1,2.1c0.9,0.7,2.1,0.5,3.3,0.4
		c1-0.1,1.9-0.3,2.6,0.1c0.4,0.2,0.7,0.7,0.8,1.3c0.1,0.5,0,1.1-0.3,1.8c-0.7,1.6-2.2,2.9-3.8,3.2c-0.5,0.1-1,0.1-1.8,0.1
		c-0.9,0-1.6,0-2.3-0.1l-2.3-0.7c-0.7-0.2-1.3-0.5-1.9-1.1c-1-0.8-1.7-2-2.3-3.1l-0.1-0.3c-1.2-2.2-1.4-4.6-0.8-7.5
		c0.4-1.7,1.4-3.2,2.8-4.2c1.2-0.7,2.5-1.4,4.1-2.1c2.6-1.1,5.5-1.4,8.7-0.7c1.3,0.3,2.7,0.8,4.2,1.7c1.4,0.8,2.5,1.8,3.2,3
		c0.4,0.8,0.8,1.6,1.1,2.4l0.4,0.8c0.5,1,1.1,5.5,1,6.6c0,0.5-0.1,0.9-0.2,1.3c-0.2,0.6-0.4,1.2-0.6,1.8c-0.3,0.9-0.6,1.8-1,2.6
		c-1.1,2.6-2.3,4.8-3.8,7c-0.8,1.2-1.7,2.5-3,3.8c-0.8,0.9-1.8,1.6-2.8,2.4c-0.3,0.2-0.6,0.5-0.9,0.7c-3.3,2.6-5.8,4.9-8,7.4
		c-1.1,1.3-2.2,2.6-3.3,4.3c-0.5,0.7-1.1,1.5-1.4,2.3c-0.1,0.1-0.1,0.3-0.2,0.8c-0.1,0.3-0.3,1-0.4,1.3c-0.9,0.1-2.6,0.4-3.9,1.1
		c-6.3,3-10.8,8.5-12.2,14.8c-0.6,2.7-0.9,5.1-0.7,7.3c0.5,2.7,0.8,4.1,1.1,4.9c-2.1,1.3-3.8,3.1-4.9,4.5c-1.2,1.5-2.5,3.1-3,5.2
		c-0.1,0.5-0.2,1.1-0.4,1.6c-0.4,1.8-0.9,3.7-0.7,5.7c0.3,2.6,1.3,5,3,6.7C291.1,346.7,294.4,348.1,297.5,348.2z M304.2,322.8
		c2.7,0.5,4.8,1.2,6.5,2c0.1,0.1,0.8,0.5,1.3,0.9c1.4,1.3,1,2.7,0.6,3.5c-0.9,1.6-3.1,3.1-5,2.6c-1.2-0.2-2.5-0.9-3.5-2
		c-2.3-2.1-3.8-4.3-4.7-6.8c0.4,0,0.8-0.1,1.2-0.1C301.8,322.7,303,322.6,304.2,322.8z M318.5,297.4c2.9,1.2,6.4,3.3,6.6,6.9l0,0
		c0.1,1.3-0.3,2.5-1.2,3.5c-1,1.2-2,1.8-2.8,1.9c-0.5,0-1.2-0.1-1.9-0.3c-0.9-0.2-1.8-0.5-2.5-0.8c-0.6-0.4-1.2-0.9-1.9-1.6
		c-1.3-1.5-2.2-3.3-2.5-5.1c-0.2-1.4-0.2-2.5,0.1-3.4c0.2-0.9,0.3-1.7,0.6-2.5C314.7,296.2,316.7,296.7,318.5,297.4z"/>
	<path class="st0" d="M96.5,238.5c-1.5,1-2.4,2.3-2.9,3.8c-0.6,1.8-0.6,3.6-0.2,5.3c0.8,3,3.6,4.2,7.7,3.4c0.9-0.2,1.7-0.5,2.2-0.9
		c0.8-0.5,1.4-1.2,1.6-2.1c0.1-0.7-0.1-1.4-0.6-2c-0.6-0.7-1.4-1.1-2.2-1.2c-1.5-0.2-2.9,0.8-3.7,1.9l-0.1,0.1
		c-0.1,0.1-0.2,0.3-0.3,0.4c0,0-0.1,0-0.2,0l-0.1-0.1c-1-0.3-1.4-1.1-1.5-1.6c-0.2-1.1,0.2-2.4,1-3.1c0.9-0.8,2.2-1.3,3.2-1.7
		c3-1,5.6-0.4,7.8,1.9c3.4,3.7,4.8,8.6,3.7,12.8c-0.1,0.6-0.3,1.1-0.7,1.7c0,0-0.1,0.1-0.2,0.3c0,0,0,0.1-0.1,0.1
		c0,0-0.1-0.1-0.1-0.1c-1-0.9-2.3-1.6-3.6-2.3c-2.6-1.2-5.6-1.7-8.5-1.4c-0.7,0.1-1.3,0.2-1.9,0.4c-0.3,0.1-0.6,0.2-0.9,0.5
		c-0.1,0.1-0.4,0.2-0.6,0.2c-0.5,0.2-1,0.4-1.4,0.7c-0.5,0.3-0.9,0.8-1.2,1.3c-0.7,0.9-1.3,2.2-1.6,3.5c-0.6,3.2,0.5,6,3.1,7.6
		c0.7,0.4,1.3,0.7,2.1,0.9c0.8,0.1,1.7,0.1,2.7-0.1c3.2-0.5,5.8-1.3,8.1-2.4c1.7-0.9,3.1-1.9,4.3-2.9c0.4,0.4,0.7,0.7,1.1,1
		c0.7,0.6,1.3,1.2,1.9,1.8c1.5,1.9,3,4.1,3.5,6.4c0.4,2,0.8,3.7,0.8,5.6c0.1,1.9-0.3,3.6-1.4,5.8c-0.6,1.1-1.2,2-1.9,3
		c-0.2,0.2-0.3,0.4-0.5,0.6c-0.1-0.2-0.2-0.3-0.3-0.4l-0.2-0.3c-0.3-0.7-0.7-1.4-1.1-2.1c-0.3-0.5-0.6-1.1-1-1.6
		c-1.2-1.7-3.1-3-4.6-3.9c-3.2-2-7.8-1.9-11,0.2c-2.2,1.5-3.4,3.3-3.9,5.8c-0.2,1-0.2,2-0.1,2.9c0.2,1.3,0.6,2.4,1.3,3.4
		c1.7,2.5,4.1,4,7,4.3c1.9,0.3,3.9,0.3,5.9,0c2.2-0.4,4.2-1.3,6-2.2c0.3,0.8,0.5,1.4,0.5,2.2c0,0.2,0,0.4,0,0.7c0,0.5,0,0.9,0,1.4
		c0,1.3-0.1,2.6-0.3,4.1c-0.4,2-0.9,4.1-1.7,6.7c-0.3,1-0.5,1.9-0.8,2.8c-0.3,1.3-0.6,2.5-1,3.7c-0.2,0.6-0.3,1.1-0.3,1.6
		c0,0.2-0.1,0.5-0.1,0.7c-0.4,1.9-0.5,3.7-0.6,5.9c-0.3,4.4,0.5,8.5,2.3,12.4c1.4,3,3.5,5.5,6.2,7.4c1.4,1,3,1.8,4.5,2.6
		c1.4,0.7,2.8,1,4.3,0.9c3.4-0.2,6.4-1.2,9.2-3.1c3.8-2.8,6.3-6.4,7.7-11.1c0.1-0.7,0.2-1.2,0.2-1.8c0-1.9-0.5-3.9-1.3-5.6
		c-1.3-2.3-3.6-4.5-6.3-5.9c-1.9-1.1-4-1.6-6.1-1.4c-2.2,0.1-4.4,1-6,1.9c-1.3,0.6-2.3,1.3-3.1,2.2c-2,2.3-2.5,6.3-1.2,9.2
		c0.9,1.9,2.2,3.4,3.9,4.3c2.3,1.3,4.4,1.2,6.4-0.3c1-0.8,2.1-1.7,2.3-3.2c0.1-0.3,0.1-0.8-0.1-1.4l0-0.1c-0.1-0.3-0.3-0.7-0.6-1.1
		c-0.6-0.7-1.3-1.1-2-1.2c-1.1-0.1-2.1,0.7-3,1.5c-0.7,0.6-1.5,1.3-2.2,1.3c-0.5,0.1-1-0.2-1.3-0.7c-0.3-0.4-0.6-0.9-0.7-1.7
		c-0.3-1.7,0.3-3.6,1.5-4.7c0.3-0.3,0.8-0.7,1.4-1c0.7-0.5,1.3-0.9,2-1.2l2.3-0.7c0.7-0.2,1.4-0.2,2.2-0.1c1.3,0.1,2.5,0.7,3.7,1.3
		l0.3,0.1c2.2,1.2,3.7,3.1,4.8,5.8c0.6,1.7,0.6,3.4-0.1,5c-0.6,1.2-1.3,2.5-2.3,4c-1.6,2.4-3.8,4.2-6.8,5.3
		c-1.2,0.5-2.7,0.8-4.4,0.9c-1.6,0.1-3.1-0.1-4.3-0.7c-0.8-0.4-1.5-0.9-2.3-1.4l-0.7-0.5c-0.9-0.5-3.9-4-4.4-4.9
		c-0.2-0.4-0.4-0.8-0.5-1.2c-0.1-0.6-0.3-1.2-0.5-1.8c-0.2-0.9-0.5-1.8-0.6-2.7c-0.5-2.7-0.7-5.3-0.6-7.9c0-1.4,0.1-3,0.4-4.8
		c0.2-1.2,0.6-2.3,1-3.5c0.1-0.4,0.3-0.7,0.4-1.1c1.3-3.9,2.2-7.3,2.6-10.6c0.2-1.7,0.4-3.4,0.4-5.4c0.1-0.9,0.1-1.8-0.1-2.7
		c0-0.1-0.1-0.3-0.2-0.8c-0.1-0.3-0.3-1-0.4-1.3c0.7-0.6,1.9-1.7,2.7-3c3.6-5.9,4.4-13,2.1-19c-1-2.6-2.1-4.7-3.4-6.4
		c-1.9-2-3-3-3.5-3.5c1-2.2,1.5-4.7,1.6-6.4c0.2-1.9,0.3-4-0.4-6c-0.2-0.5-0.4-1-0.6-1.5c-0.6-1.7-1.3-3.6-2.6-5.1
		c-1.7-2-3.8-3.4-6.1-3.9C102.6,236.3,99.1,236.9,96.5,238.5z M104.8,263.3c-2.5,1-4.6,1.6-6.5,1.9c-0.2,0-0.9,0-1.6,0
		c-1.9-0.3-2.3-1.7-2.4-2.6c-0.2-1.8,0.9-4.3,2.7-4.9c1.1-0.5,2.6-0.6,4-0.3c3.1,0.5,5.5,1.5,7.7,3.1c-0.3,0.3-0.6,0.5-1,0.8
		C106.8,262.1,105.9,262.8,104.8,263.3z M106.8,292.2c-3,0.6-7.1,0.8-9.3-2.1l0,0c-0.8-1-1.1-2.2-0.9-3.6c0.2-1.5,0.7-2.5,1.3-3.1
		c0.5-0.3,1.1-0.6,1.7-0.8c0.9-0.4,1.7-0.6,2.5-0.7c0.7,0,1.5,0.1,2.4,0.3c1.9,0.5,3.6,1.5,4.9,2.8c1,1.1,1.5,2,1.8,2.8
		c0.3,0.8,0.6,1.6,0.9,2.4C110.6,291.1,108.7,291.8,106.8,292.2z"/>
	<path class="st0" d="M231.8,361.9c-12-1.5-24.1-1.2-35.9,1c-2.7,0.5,1.1,4.6,3,4.2c11.5-2.1,23.2-2.5,34.9-1.1
		C237,366.5,233.8,362.1,231.8,361.9z"/>
</g>
</svg>
