<?xml version="1.0" encoding="utf-8"?>
<!-- Generator: Adobe Illustrator 21.1.0, SVG Export Plug-In . SVG Version: 6.00 Build 0)  -->
<svg version="1.1" id="Calque_1" xmlns="http://www.w3.org/2000/svg" xmlns:xlink="http://www.w3.org/1999/xlink" x="0px" y="0px"
	 viewBox="0 0 432 432" style="enable-background:new 0 0 432 432;" xml:space="preserve">
<style type="text/css">
	.st0{fill:#905269;}
	.st1{fill:#5B473E;}
	.st2{fill:#EE8081;}
	.st3{fill:#455063;}
	.st4{fill:#A5998D;}
	.st5{fill:#B94E46;}
	.st6{fill:#8D7867;}
	.st7{fill:#E4C08C;}
	.st8{fill:#BEC1A4;}
	.st9{fill:#B3AEA8;}
	.st10{fill:#F39DA0;}
	.st11{fill:#1A1A1A;}
	.st12{fill:#F7C7C5;}
	.st13{fill:#997BA1;}
	.st14{fill:#658367;}
	.st15{fill:#EA7563;}
	.st16{fill:#3BBACB;}
	.st17{fill:#F98600;}
	.st18{fill:#F5CD00;}
	.st19{fill:#CCCCCC;}
	.st20{fill:#449BC4;}
	.st21{fill:#C69C6D;}
	.st22{fill:#B7C8A4;}
	.st23{fill:#333333;}
	.st24{fill:#B6DB00;}
	.st25{fill:#C10810;}
	.st26{fill:#B98D4D;}
	.st27{fill:#D6A8B2;}
	.st28{fill:#F3532F;}
	.st29{fill:#0071BC;}
	.st30{fill:#006837;}
	.st31{fill:#F1E06C;}
	.st32{fill:#FFB07F;}
	.st33{fill:#B26E6E;}
	.st34{fill:#89A57D;}
	.st35{fill:#E4B1B1;}
	.st36{fill:#A35061;}
	.st37{fill:#677763;}
	.st38{fill:#DFAFB4;}
	.st39{fill:#6D2E2E;}
	.st40{fill:#D79191;}
	.st41{fill:#A51A1A;}
	.st42{fill:#E16F6F;}
	.st43{fill:#ECA3A3;}
	.st44{fill:#A99FC8;}
	.st45{fill:#F4CDA1;}
	.st46{fill:#F28460;}
	.st47{fill:#666666;}
	.st48{fill:#FE6467;}
	.st49{fill:#FBB03B;}
	.st50{fill:#5E417B;}
	.st51{fill:#8EA73D;}
	.st52{fill:#A677B5;}
	.st53{fill:#D397D5;}
	.st54{fill:#8FBA72;}
	.st55{fill:#525541;}
	.st56{fill:#FEB8BD;}
	.st57{fill:#B86B8B;}
	.st58{fill:#4EA8D0;}
	.st59{fill:#A7343B;}
	.st60{fill:#F3A61D;}
	.st61{fill:#BD607F;}
	.st62{fill:#678A6C;}
	.st63{fill:#5B2642;}
	.st64{fill:#A5A184;}
	.st65{fill:#BF8F56;}
	.st66{fill:#2C2B27;}
	.st67{fill:#3C3C3B;}
	.st68{fill:#E7AE61;}
	.st69{fill:#A3897A;}
	.st70{fill:#F1B4B4;}
	.st71{fill:#DEE1DA;}
	.st72{fill:#8BAA67;}
	.st73{fill:#634E42;}
	.st74{fill:#EF810D;}
	.st75{fill:#493D38;}
	.st76{fill:#DEBA88;}
	.st77{fill:#697279;}
	.st78{fill:#5A6054;}
	.st79{fill:#E6421C;}
	.st80{fill:#DCBA6E;}
	.st81{fill:#EB608A;}
	.st82{fill:#D8BFAC;}
	.st83{fill:#507B64;}
	.st84{fill:#7A6A58;}
	.st85{fill:#BD1622;}
	.st86{fill:#B18EAC;}
	.st87{fill:#82A091;}
	.st88{fill:#422813;}
	.st89{fill:#B17F49;}
	.st90{fill:#E68A9C;}
	.st91{fill:#1D1D1B;}
	.st92{fill:#E7A460;}
	.st93{fill:#6A7C5D;}
	.st94{fill:#B23032;}
	.st95{fill:#5E7C4A;}
	.st96{fill:#65052B;}
	.st97{fill:#C42A52;}
	.st98{fill:#390200;}
	.st99{fill:#A1A395;}
	.st100{fill:#ADA667;}
	.st101{fill:#886766;}
	.st102{fill:#96977D;}
	.st103{fill:#607254;}
	.st104{fill:#925673;}
	.st105{fill:#D86E63;}
	.st106{fill:#A2BC70;}
	.st107{fill:#E37A17;}
	.st108{fill:#778A15;}
	.st109{fill:#BE013B;}
	.st110{fill:#CAACC4;}
	.st111{fill:#874D80;}
	.st112{fill:#E7E2DE;}
	.st113{fill:#748565;}
	.st114{fill:#736357;}
	.st115{fill:#8E9091;}
	.st116{fill:#6A665F;}
	.st117{fill:#576B4A;}
	.st118{fill:#606060;}
	.st119{fill:#EBBFC0;}
	.st120{fill:#B297CA;}
	.st121{fill:#DCC6D6;}
	.st122{fill:#420909;}
	.st123{fill:#E2A759;}
	.st124{fill:#DD7576;}
	.st125{fill:#B23838;}
	.st126{fill:#CC9A6D;}
	.st127{fill:#7F454F;}
</style>
<g>
	<g>
		<path class="st67" d="M84.1,113.7c0.4,0,0.7,0,1-0.2c0.3-0.1,0.5-0.3,0.7-0.5c0.2-0.2,0.4-0.4,0.6-0.7c0.2-0.2,0.4-0.5,0.7-0.7
			c0.8-0.7,1.4-0.6,1.7,0.4c0.1,0.2,0.1,0.3,0.2,0.5c0,0.1,0.1,0.3,0.1,0.5c0.1,0.8,0.1,1.6,0.2,2.5c0.1,0.8,0.2,1.7,0.3,2.5
			c0,0.1,0,0.3,0,0.4c0,0.1,0,0.3-0.1,0.4c-0.1,0.3-0.3,0.5-0.5,0.5c-0.2,0.1-0.4,0-0.7-0.2c-0.1-0.1-0.2-0.3-0.3-0.4
			c-0.1-0.1-0.2-0.3-0.3-0.4c-0.1-0.2-0.2-0.3-0.2-0.5c0-0.1-0.1-0.3-0.2-0.4c-0.3-0.7-0.7-1.1-1.1-1.2c-0.4-0.2-1-0.1-1.8,0.2
			c0.2,1.8,0.5,3.6,0.7,5.4c0.2,1.8,0.5,3.6,0.7,5.4c0.3,0,0.6-0.1,0.8-0.3c0.2-0.2,0.4-0.3,0.6-0.6c0.2-0.1,0.3-0.3,0.4-0.4
			c0.1-0.1,0.2-0.3,0.3-0.4c0.2-0.2,0.4-0.3,0.6-0.2c0.2,0.1,0.3,0.2,0.3,0.5c0,0.2,0,0.4,0,0.6s-0.1,0.4-0.2,0.6
			c-0.3,0.6-0.7,1-1.1,1.4c-0.5,0.4-1,0.6-1.7,0.7c-0.4,0-0.7,0-1.1,0.1c-0.4,0-0.7,0-1.1,0c-0.9,0-1.8,0.1-2.7,0.3
			c-0.8,0.2-1.7,0.5-2.4,1.1c-0.1,0.1-0.2,0.1-0.4,0.2c-0.2,0-0.3,0-0.4,0c-0.3-0.2-0.4-0.5-0.1-0.9c0.3-0.4,0.5-0.7,0.6-0.9
			c0.2-0.2,0.4-0.4,0.7-0.5c0.1-0.1,0.2-0.1,0.3-0.2c0.1,0,0.3-0.1,0.4-0.2c-0.1-0.8-0.3-1.6-0.4-2.3c-0.1-0.7-0.2-1.5-0.3-2.3
			c-0.6-4.1-1.2-8.2-1.8-12.3c-0.6-4.1-1.2-8.2-1.8-12.3c-0.1-0.5-0.1-0.9-0.2-1.3c-0.1-0.4-0.2-0.9-0.3-1.3
			c-0.1-0.8-0.7-1.4-1.7-1.6c-0.1,0-0.2-0.1-0.4-0.1c-0.2-0.1-0.3-0.3-0.3-0.5c0-0.2,0-0.4,0.2-0.5c0.1-0.1,0.1-0.1,0.2-0.1
			c0.1,0,0.2,0,0.3-0.1c0.2-0.1,0.3-0.1,0.5-0.2c0.1,0,0.3-0.1,0.5-0.1c1.6-0.3,3.3-0.6,4.9-0.9c1.6-0.3,3.3-0.6,4.9-0.8
			c1.4-0.2,2.8-0.4,4.2-0.5s2.8-0.3,4.3-0.4c0.9-0.1,1.4,0.3,1.5,1.2c0.1,0.7,0.2,1.4,0.2,2.1c0.1,0.7,0.1,1.4,0.2,2.1
			c0,0.1,0,0.1,0,0.2c0,0.1,0,0.1,0,0.2c-0.1,0.5-0.3,0.8-0.6,1c-0.3,0.1-0.5,0.1-0.6-0.1c-0.2-0.2-0.3-0.3-0.4-0.5
			c-0.3-0.5-0.6-1-0.8-1.5c-0.3-0.7-0.7-1.2-1.2-1.5c-0.5-0.3-1.2-0.4-1.9-0.5c-1.1,0-2.3,0.1-3.4,0.3c-1.1,0.2-2.2,0.4-3.3,0.7
			c-0.5,0.2-0.8,0.3-0.9,0.5c-0.1,0.2-0.1,0.5,0,1c0.2,1.2,0.4,2.4,0.6,3.5c0.2,1.2,0.4,2.3,0.5,3.5c0.3,1.7,0.5,3.5,0.8,5.2
			c0.2,1.7,0.5,3.5,0.7,5.2L84.1,113.7z"/>
		<path class="st67" d="M93.1,127c0-1.3,1.2-1.9,3.5-2c0.1-0.8,0.3-1.6,0.4-2.4c0.1-0.8,0.3-1.6,0.4-2.4c0.7-3.9,1.4-7.8,2.1-11.6
			c0.7-3.8,1.4-7.7,2.1-11.5c0.1-0.7,0.3-1.4,0.5-2.1c0.2-0.7,0.3-1.4,0.5-2c0.1-0.2,0.1-0.4,0.1-0.6c0-0.2,0-0.4,0.1-0.6
			c0.1-0.6-0.2-1.1-0.8-1.4c-0.2-0.1-0.4-0.1-0.5-0.2c-0.2-0.1-0.3-0.3-0.2-0.6c0.1-0.3,0.2-0.4,0.4-0.5c0.2-0.1,0.4-0.1,0.6-0.1
			c0.9-0.1,1.8-0.2,2.7-0.3c0.9-0.1,1.8-0.2,2.7-0.2c0.4,0,0.7,0,1,0c0.3,0,0.7,0,1,0c0.1,0,0.3,0,0.4,0c0.1,0,0.2,0,0.3,0
			c0.6,0,0.9,0.1,1,0.3c0.1,0.2,0,0.5-0.3,0.9c-0.2,0.3-0.3,0.6-0.3,0.8c0,0.3,0,0.5,0,0.8c0.2,1.7,0.5,3.4,0.8,5.1
			c0.3,1.7,0.7,3.3,1.2,5c0.7,2.9,1.4,5.7,2.1,8.6c0.6,2.8,1.2,5.7,1.8,8.6c0.2,0.9,0.3,1.8,0.6,2.7c0.2,0.9,0.4,1.8,0.7,2.7
			c0.3,0,0.5,0,0.7-0.1c0.2-0.1,0.4-0.3,0.6-0.5c0.2-0.2,0.4-0.3,0.5-0.2c0.2,0,0.3,0.2,0.3,0.5c0.1,0.6-0.1,1.1-0.6,1.5
			c-0.5,0.4-1,0.6-1.5,0.7c-0.5,0.1-1.1,0.2-1.7,0.1c-0.4,0-0.9-0.1-1.3-0.1c-0.4,0-0.9,0-1.3,0c-0.6,0-1.2,0-1.7,0.1
			c-0.5,0-1,0.3-1.6,0.6c-0.1,0-0.2,0.1-0.3,0.1c-0.1,0-0.2,0.1-0.4,0.1c-0.4,0-0.5-0.2-0.2-0.8c0.3-0.5,0.9-1.1,1.7-1.6
			c-0.2-1-0.4-2-0.7-3c-0.2-1-0.4-2-0.7-3.1c-1.7,0-3.4,0.1-5.1,0.1c-1.7,0.1-3.4,0.2-5.1,0.3c-0.2,1.1-0.4,2.2-0.6,3.3
			c-0.2,1.1-0.4,2.2-0.6,3.3c0.9,0.2,1.6,0.1,2.1-0.5l0-0.1c0.2-0.1,0.4-0.2,0.6-0.1c0.2,0.1,0.3,0.2,0.3,0.4l0.1,0
			c0.1,1-0.3,1.6-1.2,1.9c-0.4,0.1-0.8,0.1-1.2,0.2c-0.4,0-0.8,0-1.2,0.1c-0.4,0-0.9-0.1-1.5-0.4c-0.5-0.2-1-0.2-1.4-0.2
			c-0.4,0.1-0.9,0.2-1.3,0.5c0,0-0.1,0.1-0.1,0.1c0,0,0,0-0.1,0.1c-0.1,0.1-0.3,0.1-0.4,0C93.2,127.3,93.1,127.2,93.1,127z
			 M104.5,94.4c-0.7,3.7-1.5,7.3-2.2,10.9c-0.7,3.6-1.4,7.3-2.1,11.1l9.3-0.5c-0.7-3.6-1.5-7.3-2.3-10.8
			C106.3,101.5,105.4,97.9,104.5,94.4z"/>
		<path class="st67" d="M134.2,113.8c0.8,0.5,1.5,1.1,1.9,1.9c0.4,0.8,0.8,1.6,1.1,2.5c0.2,0.5,0.3,1.1,0.5,1.6
			c0.1,0.5,0.3,1.1,0.5,1.6c0.1,0.5,0.3,0.9,0.5,1.2c0.4,0.5,0.8,0.7,1.3,0.6c0.5,0,0.9-0.3,1.2-0.8c0.1-0.1,0.1-0.3,0.2-0.4
			c0.1-0.1,0.1-0.3,0.2-0.4c0.1-0.1,0.2-0.2,0.3-0.3c0.1-0.1,0.2-0.2,0.3-0.2c0.1,0,0.2,0.1,0.3,0.2c0.1,0.1,0.2,0.2,0.2,0.3
			c0,0.3,0,0.6,0,0.9c0,0.3-0.1,0.6-0.1,0.9c-0.3,1-0.9,1.8-1.7,2.3c-0.9,0.5-1.8,0.5-2.8,0.1c-0.7-0.3-1.3-0.6-1.8-1.1
			c-0.5-0.4-0.9-1-1.2-1.7c-0.2-0.6-0.4-1.1-0.6-1.7c-0.2-0.5-0.4-1.1-0.5-1.7c-0.2-0.4-0.3-0.9-0.5-1.3c-0.1-0.4-0.3-0.9-0.5-1.3
			c-0.4-0.9-1.1-1.3-2.2-1.3l0,8.7c0.4,0.1,0.8,0,1.1-0.2c0.3-0.2,0.5-0.4,0.7-0.7c0.1-0.1,0.1-0.1,0.2-0.2c0-0.1,0.1-0.1,0.2-0.2
			c0.1-0.1,0.2-0.1,0.2-0.2c0.1-0.1,0.2-0.1,0.2,0c0.2,0.1,0.3,0.2,0.3,0.4c0,0.4-0.1,0.7-0.2,0.9c-0.4,0.8-0.9,1.4-1.5,1.8
			c-0.7,0.4-1.5,0.6-2.4,0.5c-0.5-0.1-1-0.2-1.5-0.2c-0.5-0.1-1-0.2-1.5-0.3c-0.6-0.1-1.2-0.1-1.8-0.1c-0.6,0.1-1.2,0.3-1.7,0.7
			c-0.3,0.2-0.6,0.3-0.8,0.1c-0.2-0.2-0.3-0.5-0.1-0.9c0.2-0.7,0.8-1.2,1.6-1.5c0.2,0,0.4-0.1,0.6-0.1c0.2,0,0.4-0.1,0.7-0.1l0-1.6
			c-0.1-4.4-0.1-8.7-0.2-13c0-4.3-0.1-8.6-0.2-13l0-3.6c0.1-1.1-0.3-2.1-1.1-2.8c-0.4-0.4-0.5-0.7-0.5-0.9c0.1-0.3,0.4-0.5,0.8-0.6
			c0.5-0.1,1.1-0.2,1.6-0.2c0.7,0,1.4,0,2.1,0s1.4,0,2.1,0c2.4,0.1,4.5,0.7,6.2,1.9c1.7,1.2,3,3,3.9,5.3c0.8,2.2,1.1,4.4,1,6.7
			c-0.2,2.2-0.7,4.4-1.7,6.5c-0.9,1.9-2.2,3.4-3.9,4.4c-0.1,0.1-0.3,0.2-0.4,0.3C134.5,113.5,134.4,113.6,134.2,113.8z M130.6,112.8
			c0.3,0.2,0.5,0.2,0.8,0.2c0.2,0,0.5-0.1,0.7-0.2c1-0.4,1.9-0.9,2.7-1.5c0.8-0.6,1.4-1.4,1.9-2.3c0.6-1,1-2.1,1.3-3.3
			c0.5-1.7,0.7-3.4,0.7-5.1c0-1.7-0.4-3.4-1.1-5.1c-0.3-0.7-0.6-1.3-1-2c-0.4-0.6-0.9-1.2-1.4-1.7c-0.4-0.4-0.8-0.7-1.2-1
			c-0.4-0.3-0.9-0.5-1.5-0.5c-0.5-0.1-0.9-0.1-1.1,0.1c-0.2,0.2-0.4,0.5-0.5,1c0,0.2,0,0.3,0,0.5c0,0.1,0,0.3,0,0.5
			c0,0.9-0.1,1.8-0.1,2.7c0,0.9-0.1,1.8-0.1,2.7c0,2.1,0,4.2,0,6.2c0,2.1,0,4.1,0,6.2L130.6,112.8z"/>
		<path class="st67" d="M159.7,105.2c0.3-0.8,0.5-1.7,0.7-2.5c0.2-0.8,0.4-1.6,0.7-2.4c0.5-1.8,1-3.6,1.5-5.4c0.5-1.8,1-3.6,1.5-5.4
			c0.2-0.7,0.6-1.1,1.2-1.1c0.8,0,1.6,0,2.4,0c0.8,0,1.6,0,2.4,0c0.2,0,0.3,0,0.5,0.1c0.2,0.1,0.2,0.2,0.2,0.4c0,0.1,0,0.3-0.1,0.5
			c-0.1,0.2-0.2,0.3-0.3,0.3c-0.5,0.3-0.8,0.6-1,1.1c-0.2,0.4-0.3,0.9-0.3,1.4c-0.1,1.3-0.2,2.6-0.2,3.9c-0.1,4.1-0.1,8.1-0.2,12.1
			c0,4-0.1,8-0.2,12.1c0,0.6,0,1.3-0.1,1.9c0,0.7-0.1,1.3-0.1,2c0.5,0.2,1,0.3,1.5,0.3c0.5,0,0.9-0.3,1.3-0.7
			c0.1-0.1,0.2-0.2,0.4-0.3c0.1,0,0.3,0,0.4,0.2c0.1,0.1,0.2,0.4,0.1,0.6c-0.3,1.3-1.1,1.9-2.4,1.8c-0.3,0-0.6,0-0.9-0.1
			c-0.3-0.1-0.6-0.1-0.9-0.2c-1.6-0.5-3-0.4-4.3,0.3c-0.2,0.1-0.4,0.1-0.6,0c-0.1-0.1-0.2-0.3-0.2-0.6c0.1-0.4,0.3-0.8,0.7-1.2
			c0.4-0.4,0.9-0.6,1.4-0.7c0.2,0,0.4,0,0.5,0c0.2,0,0.4,0,0.6,0c0.2-4.4,0.2-8.7,0.3-13c0-4.3-0.1-8.6-0.2-13
			c-0.1,0.2-0.1,0.3-0.1,0.5c0,0.1-0.1,0.3-0.1,0.5c-0.7,2.7-1.4,5.3-2,7.8c-0.7,2.6-1.3,5.2-2,7.8c-0.1,0.6-0.3,1.1-0.5,1.6
			c-0.2,0.3-0.4,0.5-0.6,0.5c-0.2,0-0.5-0.1-0.7-0.4c-0.1-0.2-0.2-0.4-0.3-0.5c-0.1-0.2-0.1-0.4-0.2-0.5c-0.5-1.3-1-2.6-1.3-4
			c-0.4-1.3-0.7-2.7-1.1-4c-0.5-1.6-0.9-3.3-1.4-4.9c-0.5-1.6-0.9-3.2-1.4-4.9l-0.1-0.2c-0.1,4.6-0.2,9.2-0.4,13.7
			c-0.1,4.5-0.2,9.1-0.4,13.7c0.2,0.1,0.3,0.2,0.5,0.1c0.2-0.1,0.3-0.2,0.5-0.3c0.1-0.1,0.2-0.2,0.3-0.3c0.1-0.1,0.2-0.2,0.3-0.3
			c0.1-0.1,0.2-0.3,0.3-0.4c0.1-0.1,0.2-0.2,0.5-0.1c0.2,0.1,0.4,0.2,0.4,0.4c0,0.2,0.1,0.4,0.1,0.6c0,0.7-0.3,1.3-0.9,1.6
			c-0.5,0.2-1.1,0.4-1.8,0.5c-0.4,0-0.9,0-1.3-0.1c-0.4,0-0.9-0.1-1.3-0.1c-0.5,0-1.1-0.1-1.6-0.1c-0.5,0-1,0-1.6,0
			c-0.8,0-1.4,0.2-1.9,0.7c-0.3,0.3-0.6,0.4-0.7,0.2c-0.1-0.1-0.2-0.3-0.2-0.6c0.1-0.5,0.3-0.9,0.7-1.4c0.4-0.4,0.9-0.7,1.4-0.8
			c0.1,0,0.2-0.1,0.4-0.1c0.1,0,0.3,0,0.5-0.1l0-1.1l0-12.8c0-1.9,0.1-3.8,0.1-5.7c0-1.9,0-3.8,0-5.7c0-1.1,0-2.2,0-3.2
			c0-1.1,0-2.1-0.1-3.2c0-0.6-0.1-1.1-0.3-1.6c-0.2-0.5-0.6-0.9-1.2-1.1c-0.1-0.1-0.3-0.2-0.3-0.2c-0.1-0.1-0.1-0.2-0.1-0.4
			c0-0.1,0-0.3,0.1-0.4c0.1-0.1,0.4-0.2,0.9-0.2c0.9,0,1.8,0,2.8,0c0.9,0,1.9,0,2.8,0c0.8,0,1.4,0.4,1.6,1.1
			c0.3,0.7,0.6,1.4,0.8,2.1c0.3,0.7,0.5,1.4,0.7,2.1c0.6,1.8,1.2,3.7,1.7,5.5c0.6,1.8,1.1,3.6,1.7,5.5c0,0.1,0.1,0.2,0.1,0.3
			C159.5,104.9,159.6,105.1,159.7,105.2z"/>
		<path class="st67" d="M198.9,110.6c0.4,0.1,0.7,0.1,1,0c0.3-0.1,0.5-0.2,0.8-0.4c0.2-0.2,0.5-0.4,0.7-0.6c0.2-0.2,0.5-0.4,0.8-0.6
			c0.9-0.6,1.4-0.4,1.7,0.7c0,0.2,0.1,0.3,0.1,0.5c0,0.1,0,0.3,0,0.5c-0.1,0.8-0.1,1.6-0.1,2.5c0,0.9-0.1,1.7-0.1,2.6
			c0,0.1-0.1,0.3-0.1,0.4c0,0.1-0.1,0.3-0.1,0.4c-0.2,0.3-0.4,0.4-0.6,0.5c-0.2,0-0.4-0.1-0.6-0.3c-0.1-0.1-0.1-0.3-0.2-0.4
			c-0.1-0.1-0.1-0.3-0.2-0.5c-0.1-0.2-0.1-0.3-0.1-0.5c0-0.1-0.1-0.3-0.1-0.5c-0.2-0.7-0.5-1.2-1-1.4c-0.4-0.2-1-0.3-1.8-0.1
			c0,1.8-0.1,3.6-0.1,5.4s0,3.6-0.1,5.5c0.3,0,0.6,0,0.8-0.1c0.2-0.1,0.4-0.3,0.7-0.5c0.2-0.1,0.3-0.2,0.4-0.4
			c0.1-0.1,0.3-0.2,0.4-0.4c0.2-0.2,0.5-0.2,0.7-0.1s0.3,0.3,0.2,0.6c0,0.2,0,0.4-0.1,0.6c0,0.2-0.1,0.4-0.3,0.5
			c-0.4,0.5-0.8,0.9-1.3,1.2c-0.5,0.3-1.1,0.5-1.8,0.5c-0.4,0-0.7-0.1-1.1-0.1c-0.4,0-0.7-0.1-1.1-0.1c-0.9-0.1-1.8-0.2-2.7-0.1
			c-0.9,0.1-1.7,0.3-2.6,0.7c-0.1,0.1-0.2,0.1-0.4,0.1c-0.2,0-0.3,0-0.4-0.1c-0.3-0.2-0.3-0.5,0-0.9c0.3-0.4,0.6-0.6,0.8-0.8
			c0.2-0.2,0.4-0.3,0.8-0.4c0.1-0.1,0.2-0.1,0.3-0.1c0.1,0,0.3-0.1,0.4-0.1c0-0.8,0-1.6,0-2.4c0-0.8,0-1.5,0-2.4
			c0-4.2,0-8.3-0.1-12.4c0-4.1,0-8.3-0.1-12.4c0-0.5,0-0.9,0-1.3c0-0.4,0-0.9-0.1-1.3c0-0.8-0.5-1.5-1.4-1.8c-0.1,0-0.2-0.1-0.4-0.2
			c-0.2-0.1-0.3-0.3-0.3-0.5c0-0.2,0.1-0.4,0.3-0.5c0.1-0.1,0.2-0.1,0.3-0.1c0.1,0,0.2,0,0.3-0.1c0.2,0,0.3-0.1,0.5-0.1
			c0.1,0,0.3,0,0.5,0c1.7-0.1,3.3-0.1,5-0.2c1.6-0.1,3.3-0.1,5-0.1c1.4,0,2.8,0,4.2,0.1c1.4,0.1,2.9,0.1,4.3,0.2
			c0.9,0,1.4,0.5,1.4,1.4c0,0.7,0,1.4-0.1,2.1c0,0.7-0.1,1.4-0.1,2.1c0,0.1-0.1,0.1,0,0.2c0,0.1,0,0.1,0,0.2
			c-0.1,0.5-0.4,0.8-0.7,0.9c-0.3,0.1-0.5,0-0.6-0.1c-0.1-0.2-0.2-0.3-0.3-0.5c-0.3-0.6-0.5-1.1-0.6-1.6c-0.2-0.7-0.5-1.3-1-1.7
			c-0.5-0.4-1.1-0.6-1.8-0.7c-1.1-0.2-2.3-0.2-3.4-0.1c-1.1,0.1-2.2,0.1-3.4,0.2c-0.5,0.1-0.8,0.2-0.9,0.3c-0.1,0.1-0.2,0.5-0.2,1
			c0,1.2,0.1,2.4,0.1,3.6c0,1.2,0.1,2.3,0,3.5c0,1.8,0.1,3.5,0,5.3c0,1.8,0,3.5,0,5.3L198.9,110.6z"/>
		<path class="st67" d="M226.4,112.9c0.9,0.5,1.5,1.1,2,1.8c0.5,0.7,0.9,1.6,1.2,2.4c0.2,0.5,0.4,1.1,0.5,1.6
			c0.1,0.5,0.3,1.1,0.5,1.6c0.2,0.5,0.4,0.9,0.6,1.1c0.4,0.4,0.8,0.6,1.3,0.6c0.5-0.1,0.9-0.3,1.2-0.8c0.1-0.1,0.1-0.3,0.2-0.4
			c0-0.1,0.1-0.3,0.2-0.4c0.1-0.1,0.2-0.2,0.3-0.3c0.1-0.1,0.2-0.2,0.3-0.2c0.1,0,0.2,0.1,0.4,0.2c0.1,0.1,0.2,0.2,0.2,0.3
			c0,0.3,0.1,0.6,0.1,0.9c0,0.3,0,0.6-0.1,0.9c-0.2,1-0.8,1.8-1.7,2.3c-0.9,0.5-1.8,0.6-2.8,0.2c-0.7-0.3-1.3-0.6-1.8-1
			c-0.5-0.4-0.9-1-1.2-1.7c-0.2-0.6-0.4-1.1-0.6-1.6c-0.2-0.5-0.4-1.1-0.6-1.7c-0.2-0.4-0.4-0.8-0.5-1.3c-0.2-0.4-0.4-0.9-0.6-1.3
			c-0.4-0.9-1.1-1.3-2.3-1.2l0.3,8.6c0.4,0.1,0.8,0,1.1-0.2c0.3-0.2,0.5-0.4,0.7-0.7c0.1-0.1,0.1-0.1,0.2-0.2c0-0.1,0.1-0.1,0.2-0.2
			c0.1-0.1,0.1-0.1,0.2-0.2c0.1-0.1,0.2-0.1,0.2,0c0.2,0.1,0.3,0.2,0.3,0.4c0,0.4,0,0.7-0.1,0.9c-0.3,0.8-0.8,1.5-1.5,1.9
			c-0.7,0.4-1.4,0.6-2.4,0.5c-0.5-0.1-1-0.1-1.5-0.2c-0.5-0.1-1-0.1-1.5-0.2c-0.6-0.1-1.3-0.1-1.8,0c-0.6,0.1-1.2,0.3-1.7,0.8
			c-0.3,0.3-0.6,0.3-0.8,0.1c-0.3-0.2-0.3-0.5-0.1-0.9c0.2-0.7,0.7-1.2,1.5-1.5c0.2,0,0.4-0.1,0.6-0.1c0.2,0,0.4-0.1,0.7-0.2
			l-0.1-1.6c-0.2-4.4-0.5-8.7-0.7-13c-0.2-4.3-0.4-8.6-0.7-13l-0.1-3.6c0-1.1-0.4-2-1.2-2.7c-0.4-0.3-0.6-0.6-0.5-0.9
			c0.1-0.3,0.3-0.5,0.8-0.6c0.5-0.1,1.1-0.2,1.6-0.2c0.7,0,1.4-0.1,2.1-0.1c0.7,0,1.4-0.1,2.1-0.1c2.4,0,4.5,0.5,6.3,1.7
			c1.8,1.2,3.1,2.9,4,5.1c0.9,2.2,1.3,4.4,1.2,6.6c-0.1,2.2-0.6,4.4-1.5,6.6c-0.8,2-2.1,3.5-3.8,4.5c-0.1,0.1-0.3,0.2-0.4,0.3
			C226.7,112.7,226.6,112.8,226.4,112.9z M222.8,112.1c0.3,0.2,0.5,0.2,0.8,0.2c0.2,0,0.5-0.1,0.7-0.2c1-0.4,1.8-1,2.6-1.6
			c0.8-0.6,1.4-1.4,1.8-2.4c0.5-1,0.9-2.1,1.2-3.4c0.4-1.7,0.6-3.4,0.5-5.1c-0.1-1.7-0.5-3.4-1.3-5c-0.3-0.7-0.7-1.3-1.1-1.9
			c-0.4-0.6-0.9-1.2-1.4-1.6c-0.4-0.4-0.8-0.7-1.3-1c-0.5-0.3-1-0.4-1.5-0.5c-0.5-0.1-0.9,0-1.1,0.1c-0.2,0.2-0.4,0.5-0.4,1
			c0,0.2,0,0.3,0,0.5c0,0.1,0,0.3,0,0.5c0,0.9,0,1.8,0,2.7c0,0.9,0,1.8,0,2.7c0.1,2.1,0.1,4.2,0.2,6.2c0.1,2.1,0.1,4.1,0.2,6.2
			L222.8,112.1z"/>
		<path class="st67" d="M246.1,110.8c0,1.8,0.1,3.7,0.2,5.5c0.1,1.8,0.2,3.7,0.3,5.6c1.4,0.2,2.7,0.3,4,0.3c1.3,0,2.6-0.2,3.8-0.7
			c0.6-0.2,1.2-0.6,1.7-1c0.5-0.4,0.9-1,1.2-1.6c0.1-0.3,0.3-0.7,0.6-1c0.1-0.1,0.2-0.1,0.3-0.2c0.1-0.1,0.2-0.1,0.3,0
			c0.3,0.1,0.4,0.2,0.5,0.5c0.1,0.4,0,0.7,0,1.2c-0.2,0.8-0.5,1.4-0.9,2c-0.4,0.6-1,1-1.7,1.4c-0.8,0.4-1.7,0.7-2.6,0.9
			c-1.6,0.4-3.1,0.6-4.7,0.6c-1.6,0-3.1-0.1-4.7-0.3c-0.5,0-0.9-0.1-1.4-0.1c-0.5,0-0.9,0-1.4,0c-0.9,0-1.7,0.3-2.6,0.8
			c-0.2,0.2-0.4,0.3-0.6,0.3c-0.2,0-0.4,0-0.6-0.1c0,0-0.1-0.1-0.1-0.2c0-0.1,0-0.2,0-0.3c0.2-0.6,0.7-1.1,1.4-1.5
			c0.3-0.1,0.5-0.2,0.8-0.3c0.2-0.1,0.5-0.2,0.8-0.3c0-1,0-1.9-0.1-2.8c0-0.9,0-1.9,0-2.8c-0.2-3.4-0.3-6.9-0.5-10.3
			c-0.2-3.4-0.3-6.9-0.5-10.3c0-0.8-0.1-1.6-0.2-2.4c-0.1-0.8-0.2-1.6-0.2-2.4c0-0.2,0-0.4-0.1-0.5c0-0.2-0.1-0.4-0.1-0.5
			c-0.3-0.9-0.8-1.5-1.7-1.7c-0.4-0.1-0.6-0.1-0.8-0.3c-0.1-0.1-0.2-0.1-0.3-0.2c-0.1-0.1-0.1-0.2-0.1-0.4c0-0.2,0.1-0.3,0.2-0.4
			c0.1-0.1,0.2-0.1,0.3-0.2c0.2,0,0.4-0.1,0.7-0.1l9.2-0.4l7.3-0.4c0.7,0,1.2,0.1,1.6,0.3c0.3,0.2,0.6,0.7,0.6,1.4
			c0.1,0.7,0.1,1.4,0.1,2.1c0,0.7,0,1.4,0,2.2c0,0.1,0,0.3,0,0.4c0,0.1,0,0.2-0.1,0.4c-0.1,0.1-0.2,0.3-0.3,0.4
			c-0.1,0.1-0.3,0.2-0.5,0.2c-0.4,0-0.6-0.1-0.8-0.4c-0.1-0.2-0.1-0.4-0.2-0.5c0-0.2-0.1-0.4-0.1-0.6c-0.1-0.3-0.2-0.6-0.3-1
			c-0.1-0.3-0.2-0.7-0.3-1c-0.2-0.7-0.7-1.1-1.3-1.3c-0.3-0.1-0.5-0.1-0.8-0.1c-0.3,0-0.5-0.1-0.8,0c-0.7,0-1.4,0.1-2.1,0.1
			c-0.7,0-1.4,0.1-2.1,0.2c-0.5,0.1-0.8,0.2-0.9,0.3c-0.1,0.2-0.2,0.5-0.2,0.9l0.7,17.3l0.1,1.1c0.6,0.1,1.1,0,1.6-0.2
			c0.4-0.2,0.8-0.5,1.2-0.9c0.1-0.1,0.2-0.3,0.3-0.4c0.1-0.1,0.2-0.3,0.3-0.4c0.6-0.5,1-0.4,1.2,0.3c0.1,0.4,0.2,0.7,0.2,1.1
			c0,0.8,0,1.7,0,2.5c0,0.9,0,1.7,0,2.5c0,0.4-0.1,0.6-0.1,0.7c-0.1,0.1-0.2,0.1-0.3,0.2c-0.1,0-0.2,0-0.3-0.1
			c-0.1-0.1-0.2-0.1-0.3-0.2c-0.1-0.1-0.1-0.2-0.2-0.3c0-0.1-0.1-0.3-0.2-0.4c-0.2-0.5-0.3-0.8-0.5-1.1c-0.2-0.3-0.3-0.5-0.6-0.7
			c-0.2-0.2-0.5-0.3-0.8-0.3C247.1,110.7,246.6,110.7,246.1,110.8z"/>
		<path class="st67" d="M278.9,117.9c-0.3,2.2-1.3,4-2.9,5.2c-1.6,1.3-3.6,1.9-5.9,1.9c-0.8,0-1.5-0.1-2.2-0.2
			c-0.7-0.1-1.4-0.3-2.1-0.5c-0.8-0.3-1.6-0.7-2.3-1.4c-0.7-0.6-1.3-1.4-1.8-2.3c-0.5-0.9-0.7-1.8-0.8-2.9c-0.1-1.1,0-2.1,0.4-3.3
			c0.4-1.2,1-2.2,1.9-2.9c0.7-0.6,1.5-1,2.5-0.9c0.9,0,1.8,0.4,2.4,1.1c0.7,0.7,0.9,1.5,0.6,2.5c-0.1,0.1-0.1,0.2-0.2,0.3
			c-0.1,0.1-0.2,0.2-0.2,0.3c-0.2,0.1-0.4,0.2-0.7,0.1c-0.2-0.1-0.2-0.3-0.2-0.6c0.1-0.5,0-1-0.3-1.5c-0.4-0.8-1-1-1.8-0.7
			c-0.5,0.3-0.9,0.6-1.2,1c-0.4,0.7-0.7,1.4-0.8,2.3c-0.1,0.8-0.1,1.6,0.1,2.4c0.2,0.8,0.5,1.6,0.9,2.3c0.4,0.7,1,1.3,1.6,1.8
			c0.6,0.5,1.3,0.7,2,0.9c0.7,0.1,1.4,0.1,2.2,0c1.2-0.2,2.1-0.9,2.6-2c0.8-1.7,0.8-3.5,0.2-5.2c-0.7-1.7-1.4-3.4-2.3-5.1
			c-0.7-1.2-1.4-2.5-2.1-3.7c-0.7-1.2-1.4-2.4-2.2-3.7c-0.4-0.7-0.8-1.5-1.1-2.3c-0.3-0.8-0.6-1.6-0.7-2.4c-0.6-3.5,0.3-6.6,2.9-9.2
			c1.6-1.7,3.5-2.3,5.7-1.8c0.9,0.2,1.7,0.6,2.3,1.1c0.7,0.5,1.2,1.1,1.7,1.8c0.3,0.5,0.6,0.8,0.8,0.8c0.2,0,0.5-0.3,0.8-0.8
			c0.1-0.2,0.3-0.4,0.4-0.6c0.1-0.2,0.3-0.4,0.4-0.6c0.3-0.3,0.7-0.4,1.1-0.3c0.5,0.2,0.7,0.5,0.7,1c0,0.2,0,0.4,0,0.6
			c0,0.2-0.1,0.4-0.1,0.6c-0.2,0.8-0.4,1.6-0.6,2.4c-0.2,0.8-0.4,1.6-0.6,2.4c-0.1,0.3-0.2,0.5-0.3,0.8c-0.1,0.3-0.2,0.5-0.4,0.7
			c-0.3,0.4-0.6,0.6-1.1,0.6c-0.4,0-0.8-0.2-1.1-0.7c-0.3-0.5-0.5-1-0.7-1.6c-0.2-0.6-0.3-1.1-0.4-1.7c-0.1-0.6-0.2-1.1-0.4-1.7
			c-0.1-0.3-0.3-0.7-0.4-1c-0.1-0.3-0.3-0.6-0.5-0.9c-0.2-0.3-0.4-0.5-0.7-0.7c-0.3-0.2-0.6-0.3-0.9-0.5c-0.6-0.2-1.2-0.2-1.7,0
			c-0.5,0.2-0.9,0.6-1.2,1.2c-1,2.1-1.1,4.2-0.3,6.5c0.2,0.6,0.4,1.1,0.7,1.7c0.2,0.5,0.5,1.1,0.8,1.6c0.6,1.2,1.3,2.4,2,3.6
			c0.7,1.2,1.3,2.3,2,3.5c0.5,0.9,1,1.9,1.5,2.8c0.5,1,0.9,1.9,1.2,3c0.3,0.8,0.4,1.7,0.6,2.5C279.1,116.1,279.1,117,278.9,117.9z"
			/>
		<path class="st67" d="M290.4,118.5l8.2,2.4c0.1-0.1,0.1-0.2,0.1-0.3c0-0.1,0.1-0.2,0.1-0.3c1.1-3.6,2.2-7.2,3.2-10.8
			c1.1-3.6,2.1-7.1,3.3-10.7c0-0.2,0.1-0.3,0.1-0.5s0.1-0.3,0.1-0.5c0.2-0.6,0-1.1-0.4-1.5c-0.1-0.2-0.3-0.3-0.4-0.5
			c-0.1-0.2-0.1-0.4,0-0.7c0.1-0.3,0.3-0.4,0.6-0.3c0.2,0,0.5,0.1,0.6,0.1c0.6,0.2,1.2,0.3,1.8,0.5c0.6,0.2,1.2,0.4,1.7,0.6
			c0.1,0,0.2,0.1,0.3,0.1c0.1,0,0.2,0.1,0.3,0.2c0.1,0.1,0.1,0.2,0.2,0.4c0,0.1,0,0.2,0,0.4c0,0.2-0.1,0.3-0.3,0.3
			c-0.1,0.1-0.2,0.1-0.3,0.1c-0.5-0.1-0.9,0-1.1,0.3c-0.2,0.3-0.4,0.6-0.5,1c-0.8,2.4-1.5,4.8-2.3,7.1c-0.8,2.4-1.6,4.7-2.3,7.1
			c-0.5,1.5-1,2.9-1.4,4.4c-0.4,1.5-0.9,2.9-1.4,4.4c-0.3,1.2-0.7,2.3-1.1,3.4c-0.4,1.1-0.7,2.3-1.1,3.4l-0.3,1
			c0.7,0.6,1.4,1,2.3,1.1c0.2,0.1,0.4,0,0.5-0.1c0.2-0.1,0.4-0.1,0.6-0.2c0.5,0,0.7,0.2,0.6,0.7c0,0.1-0.1,0.1-0.1,0.1
			c-0.7,0.8-1.6,1.1-2.7,0.9c-0.3-0.1-0.7-0.2-1-0.3c-0.3-0.1-0.6-0.3-0.9-0.4c-0.2-0.1-0.3-0.2-0.6-0.3c-0.2-0.1-0.4-0.2-0.5-0.3
			c-1-0.6-2.1-0.8-3.3-0.6c-0.2,0-0.3,0.1-0.4,0.1c-0.1,0-0.3,0-0.4-0.1c-0.2-0.1-0.3-0.2-0.2-0.5c0.1-0.3,0.2-0.5,0.5-0.6
			c0.2-0.2,0.5-0.2,0.7-0.3c0.4-0.1,0.7-0.1,1-0.1c0.3,0,0.6,0,1-0.1c0.4,0,0.7,0,0.9,0.1l1.8-6c-1.3-0.5-2.6-0.9-4-1.2
			c-1.3-0.4-2.7-0.8-4.1-1.2c-0.4,1.1-0.8,2.2-1.1,3.3c-0.3,1.1-0.7,2.3-1,3.4c0.4,0.1,0.7,0.2,1,0.2c0.3,0,0.6-0.1,0.9-0.3
			c0,0,0.1-0.1,0.1-0.1c0,0,0.1-0.1,0.2-0.1c0.1-0.1,0.2-0.2,0.4-0.2c0.2,0,0.3,0,0.5,0.1c0.1,0.2,0.2,0.3,0.2,0.5
			c0,0.2-0.1,0.3-0.2,0.5c-0.4,0.7-1,1.2-1.8,1.4c-0.8,0.3-1.6,0.2-2.3-0.1c-0.6-0.2-1.1-0.5-1.6-0.8c-0.5-0.3-1.1-0.6-1.6-0.9
			c-0.6-0.3-1.1-0.5-1.7-0.6c-0.6-0.1-1.1,0.1-1.7,0.3c-0.2,0.1-0.3,0.1-0.5,0.2c-0.2,0.1-0.3,0-0.5-0.2c-0.2-0.2-0.2-0.4-0.1-0.5
			c0.1-0.2,0.3-0.3,0.4-0.4c0.8-0.8,1.8-1.2,3-1.3c0.1-0.1,0.1-0.3,0.2-0.5l3.5-12.2c0.9-3,1.8-6,2.6-9c0.9-3,1.8-6,2.7-9
			c0.1-0.4,0.2-0.7,0.1-1c0-0.3-0.2-0.6-0.4-0.9c-0.1-0.2-0.2-0.3-0.3-0.5c0-0.2,0-0.3,0.1-0.6c0.2-0.3,0.6-0.4,1-0.3
			c1,0.3,2,0.5,3,0.7c1,0.2,2,0.6,2.9,1c0.3,0.1,0.6,0.3,0.8,0.5c0.2,0.2,0.3,0.4,0.3,0.7c0,0.3-0.2,0.4-0.5,0.5
			c-0.5,0.1-0.9,0.3-1,0.6c-0.2,0.3-0.3,0.7-0.4,1c-1.1,3.6-2.1,7.2-3.2,10.8c-1.1,3.6-2.1,7.2-3.2,10.8L290.4,118.5z"/>
	</g>
	<g>
		<path class="st67" d="M299.9,194.2c2.2,1.4,8.8,2.3,5.7-3.9c-1.3-2.5-4.9-3.7-8.7-3.8C296.4,189.4,297.1,192.3,299.9,194.2z"/>
		<path class="st67" d="M361.7,176.3c2-6.7-11.8-22.6-13.9-25.4c1.5-0.6,2.8-1.1,4.1-1.6c1.9-0.6,3.4-1.7,4.5-3.3
			c2.4-3.1,4.2-6.5,5.6-10.1c0.3-0.7,0.4-1.5,0.5-2.3c0.5-2.8,0.4-5.6-0.1-8.4c-0.1-0.6-0.1-1.4-0.9-1.6c-0.8-0.2-1.2,0.4-1.6,1
			c-0.7,1.1-1.4,2.3-2,3.5c-1.8,3.3-3.6,6.7-5.4,10c-0.7,1.3-1.7,2.3-2.8,3.2c-0.7,0.6-1.5,1.1-2.5,1.4c-0.1-0.2-0.2-0.3-0.3-0.4
			c-0.9-1.4-1.7-2.9-2.6-4.2c-1.2-1.8-2.9-3-4.9-3.8c-1-0.4-1.9-0.9-2.9-1.2c-0.5-0.2-1-0.2-1.6-0.3c-0.5-0.1-0.9,0.1-1,0.6
			c0,0.5,0.3,0.7,0.7,0.8c0.4,0.1,0.8,0.2,1.1,0.3c0,0.1,0,0.2,0,0.3c-0.9,0.1-1.8,0.1-2.7,0.2c-0.8,0.1-1.5,0.2-2.3,0.4
			c-0.7,0.2-0.8,0.7-0.4,1.3c0.1,0.2,0.2,0.3,0.4,0.4c-0.5,0.3-0.9,0.5-1.4,0.8c-0.9,0.6-1.5,1.6-1.8,2.6c-0.3,1.1-1,1.7-2.2,1.6
			c-0.9-0.1-1.7,0.3-2.4,0.7c-0.2,0.1-0.4,0.2-0.6,0.3c-1-0.6-1.6-1.4-1.9-2.4c-0.4-1.4-0.8-2.8-1.1-4.2c-0.8-4-1.6-8-2.4-12
			c-0.2-1.2-0.3-2.4-0.5-3.6c-0.2-1.2-0.9-1.6-2-1c-0.6,0.3-1.2,0.8-1.6,1.3c-5.2,5.9-5.5,12.7-2.2,19.6c0.7,1.4,1.7,2.6,2.5,3.9
			c1.3,1.8,2.5,2.6,4.3,3.8c-5.3,7.1-43.7-15.4-72.7-13.7c-147.9,8.9-181.5-21.3-172.3,72.4c2.7,27.8-36.1,45.7-8.6,77.3
			c4,4.5-0.8-8.4-0.8-8.9c10.7,11.5,0.6-1.7,1.4-10c0.1,0,0.2,0,0.2,0c0.4,1.1,2.9,8.7,3.6,3.7c2.8-19.3,13.7-8.9,11-74
			c1,0.7-1.1-0.2,13.2,24.1c4,6.7,1.6,12.5-1.2,18.9c-15.2,33.7-0.9,22.5-2.1,70.2c-0.2,9,1.9,13.6,4.5,8.3c7.1,14.8,23,12,17.5,6.6
			c-26.1-26.2-4.2-81,1.2-70.7c3.8,7.3-5.9,15.1,1.5,22.7c33.6,34.4,28.5,59.3,34.5,51.4c3.5,6.3,12.9,13.5,14.8,6.7
			c19.6-0.8-32.1-32.2-30.7-76c0,0,1.2,2.9,1.5,3.5c3.7,6.7,3.4-11.6,3.9-12.9c0.6,0.4,1.3,0.7,1.9,1.1c3.8,7.2,8.1,14.5,14.8,19.3
			c2.4,1.7,4.9,2.9,7.6,3.8c-0.3,1.1-0.6,2.1-1,3.2c-0.7,2.3,1.1,5,3.4,5.4c2.6,0.5,4.7-1,5.4-3.4c0.4-1.2,0.7-2.3,1.1-3.5
			c1.4,0.1,2.9,0.2,4.4,0.3c-0.1,0.8-0.2,1.6-0.2,2.3c-0.1,1.3-0.1,2.4,0.6,3.5c0.6,0.9,1.7,1.8,2.8,2c1.2,0.2,2.5,0.1,3.5-0.6
			c0.9-0.6,1.9-1.7,2-2.8c0.1-1.4,0.3-2.8,0.4-4.3c0,0,0-0.1,0-0.1c1.4-0.1,2.7-0.1,4-0.3c0.5,2,1.5,3.9,2.8,5.5
			c0.8,0.9,1.5,1.7,2.8,2c1.1,0.3,2.5,0.1,3.5-0.6c1.8-1.3,3-4.3,1.4-6.3c-0.3-0.3-0.5-0.7-0.8-1c-0.1-0.2-0.7-0.9-0.7-1.1
			c0.3,0.6,0.3,0.6,0.1,0.2c-0.1-0.1-0.1-0.3-0.2-0.4c10-3,18.3-9.4,21.9-20.2c0.5-0.2,0.9-0.4,1.4-0.7c-4.4,64.1-3.3,56.1-7.2,65.8
			c-3.3,8.1-4.1,14.2,0.9,9.8c1,2.9-3.3,24.2,17.9,17.6c13.3-4.1-19.8-18.7-2.8-48.2c19.1-33,6-40.3,19-42.6
			c0.1,0.6,0.2,1.1,0.2,1.5c0.5,49.6,6,14.8,8.1,59.6c0.2,3.8,1.7,6.7,5.6,1.8c1.7,6.5-2.9,10.7,4.3,12c7.9,1.5,24,1,18.8-4.1
			c-33.7-33-10-40-18.6-62.7c3.8-0.7,5.6-0.7,9.6-1.4c13.5-2.2,33.4-53.8,42.5-48.7c3.6,2,3.7,2.4,5.8,4.7c5.6,6.2,21.2,8.4,21.5,9
			c3,6.6,22.1,11.6,28.7,3.3C387.4,213.7,355.8,195.8,361.7,176.3z M116,188.7c-2.4,5.9-7.8,5.1-12.5,2.2c0,0.4,0,0.8,0.1,1.1
			c1,12.3,15.1,25.3,9.8,38.1c-1.2,2.8-2.5-0.9-1.8-2.4c2.8-6.7-4.8-17.7-7.3-23.9c-1.8-4.5-3.4-9.6-3.1-14.5
			c-2.5-2-4.6-4.4-5.6-6.4c-4.7-9.4-2-31.9,13.1-27.2c1.6,0.5,1,5-0.2,4.6c-8.4-2.6-13.5,5.3-12.8,13.1c0.4,4.7,2.7,8.9,6.3,11.8
			c1.4-4.3,4.7-8.3,9.7-6.3C115.5,180.3,117.6,184.7,116,188.7z M176,256.1c-1,4.3-4.7,3.6-8.5,2.9c-6.6-1.9-8.7,1.6-9.8,0.6
			c-1.1-1,0.3-4.6,6.1-4.6c0.6-16.2,0.6-74.6-0.1-90.8c-4.5,10.3-8.2,43.7-13.2,32.1c-2.2-4.9-1-2.3-10.7-33.2
			c-0.5,21.9-0.8,46-1.3,66.8c1.2,0.9,2.7-1,3.2-1.3c2.9-3.6,5.8,5.4-5.3,4.6c-7.5-0.6-10.7-0.9-12.7,0.9c-3,2.8-2.5-4.8,3.1-4.8
			c0.3,0,0.6,0,1-0.1c-0.4-70.3,1.8-75.3-3.9-80.6c-0.3-0.3-0.7-1.7,1.8-1.7c21.1,0,10.3-2.8,25.2,31.2
			c11.1-35.3,5.1-31.1,20.8-31.1c1.5,0,1.8,0.9,1.3,1.8c-6.5,10.7-1.4,55.7-4.3,107.2c4.4,1.6,5.4-1.1,6.4-1.3
			C175.7,254.5,176.3,255.2,176,256.1z M182.1,254.1c-2,1.3-1.7-4.1,4.6-4.5c0-0.2,1.8-98.4-0.7-100.2c-2.7-1.7-0.8-2.7,1-2.7
			c10.9,0.1,15.8-0.7,15.8,1.6c0.3,1-1.8,1.3-2.2,2.5c-0.6,1.7-0.5,3.6-0.5,9.4c-0.2,21-0.1,63.7-0.3,86.2v3.9
			c4.6,0.8,4.9-1.7,5.8-2.2c0.6-0.4,1.5-0.2,1.5,0.8C202.5,259.4,190,249.3,182.1,254.1z M237.3,244.2c-8.1-1.3-13.8-2.2-17.9-1.7
			c-3.4,0.5-8.2,3.9-7.7,1.4c0.1-0.3,0.2-0.5,0.4-0.7c4.5-5.6,4.1,2.3,4.3-28.9c0.1-22.3,0.8-60.3,0.4-62.4
			c-0.4-2.4-2.6-2.8-2.2-3.9c0.3-1,1.9-1,2.1-1.1c22.4-1.3,13.6,3.2,13.3,4.9c-1.3,7.3-1.8,72-1.8,84.7v2c8.7,1.7,15.8,4.1,23.3,0.2
			c9.5-5.1,0.6-13.3-0.1-5.7c-0.4,0.9,0.1,1.3-0.8,1.5c-2.8,0.4-3.3-6.1,1-7.2C263.7,224.1,260.9,248,237.3,244.2z M283.5,230.7
			c-4.8-1.3-6.3-0.1-8.4,0.7l-0.1,0.1c-0.6,0.2-1.2,0-1.3-1.2c0.8-2,3.3-2.5,5-3.3c-4.6-7.2-14.8-27-19.2-34.1
			c-6.6,9.4-5.4,9.4-4.9,27.9c4.1,0.9,5.3-0.4,7-1.8c2.1-1.7,1.9,4.5-4,4.9c-11.5,0-14.6-2.8-20.2,0.5c-1,0.6-1.3,1-2,0.4
			c-1-0.9,1-3.2,2.2-3.9c1.8-1,3.3-1,4.7-1.2c0-0.2,1-66.9-1-69.2c-3.1-2.8,6.3-1.8,11.1-1.7c5.7,0,0.6-2.9,2.2,42.2
			c0.1,0.1,0.1,0.3,0.1,0.8c1.8-1.7,18-28.1,19.4-33.4c0.7-2.8-3-2.4-2.5-4c0.5-1.7,9.1-0.9,9.3-0.9c1.1,0.4,1.5-0.1,1.8,1
			c0.3,0.9-0.2,0.9-1.3,1.5c-3,2.1-10.8,19.7-19.4,32.8c14.6,22.3,24,43.9,28.9,38.6C292.4,225.7,294.4,232.9,283.5,230.7z
			 M319,168.9c-7,0.9-13.6,3.9-18.3,9.3c-1,1.2-1.9,2.6-2.7,4.2c6.8,0.7,12.8,5,10.6,12.6c-3,10.6-13.5,1.5-14.4-5.3
			c-0.1-1.1-0.2-2.2-0.1-3.2c-5.8,0.7-11.2,3.8-9.4,8.8c0.5,1.3-1,5.5-1.8,3.2c-3.6-10.5,4-15.8,11.9-16.2c3-10,14.4-16.7,24.3-18.1
			C320.6,164.1,320.6,168.7,319,168.9z"/>
		<path class="st67" d="M109.6,182.9c-3.1-0.3-4.7,1.5-5.5,3.7c2.2,1.3,5.4,2.5,7.6,1.4C114.9,186.4,112.9,183.2,109.6,182.9z"/>
	</g>
</g>
</svg>
